<?xml version="1.0" standalone="no"?>
<!DOCTYPE svg PUBLIC "-//W3C//DTD SVG 1.1//EN" "http://www.w3.org/Graphics/SVG/1.1/DTD/svg11.dtd" >
<svg xmlns="http://www.w3.org/2000/svg" xmlns:xlink="http://www.w3.org/1999/xlink" version="1.1">
<metadata>
Created by FontForge 20150318 at Tue Nov 24 20:46:28 2015
 By uniteet7
Copyright (c) 2009 by Baselab. All rights reserved.
</metadata>
<defs>
<font id="KiplingRegular" horiz-adv-x="1186" >
  <font-face 
    font-family="KiplingRegular"
    font-weight="400"
    font-stretch="normal"
    units-per-em="2048"
    panose-1="2 0 5 6 7 0 0 2 0 4"
    ascent="1536"
    descent="-512"
    x-height="1057"
    cap-height="1434"
    bbox="-81 -929 2183 2238"
    underline-thickness="102"
    underline-position="-103"
    unicode-range="U+0020-FB02"
  />
<missing-glyph horiz-adv-x="772" 
d="M16 0v1444h740v-1444h-740z" />
    <glyph glyph-name="f_i" unicode="fi" horiz-adv-x="1038" 
d="M762 0v1026h160v-1026h-160zM842 1219q-47 0 -73.5 29t-26.5 73t26.5 73t73.5 29q49 0 75.5 -28.5t26.5 -73.5t-26.5 -73.5t-75.5 -28.5zM188 0v805h-117v137h117v96q0 213 60 312q61 100 214 100q92 0 177 -49l-56 -121q-42 25 -92 25q-85 0 -117 -65q-30 -64 -30 -200
v-98h223v-137h-223v-805h-156z" />
    <glyph glyph-name="f_l" unicode="fl" horiz-adv-x="997" 
d="M744 0v1434h157v-1434h-157zM188 0v805h-117v137h117v96q0 213 60 312q61 100 214 100q92 0 177 -49l-56 -121q-42 25 -92 25q-85 0 -117 -65q-30 -64 -30 -200v-98h223v-137h-223v-805h-156z" />
    <glyph glyph-name=".notdef" horiz-adv-x="772" 
d="M16 0v1444h740v-1444h-740z" />
    <glyph glyph-name=".null" horiz-adv-x="33" 
 />
    <glyph glyph-name="nonmarkingreturn" horiz-adv-x="682" 
 />
    <glyph glyph-name="space" unicode=" " horiz-adv-x="578" 
 />
    <glyph glyph-name="space" unicode="&#xa0;" horiz-adv-x="578" 
 />
    <glyph glyph-name="exclam" unicode="!" horiz-adv-x="616" 
d="M201 90q0 46 30 76.5t78 30.5t77.5 -30.5t29.5 -76.5t-29.5 -76t-77.5 -30t-78 30t-30 76zM231 369v1065h156v-1065h-156z" />
    <glyph glyph-name="quotedbl" unicode="&#x22;" horiz-adv-x="612" 
d="M113 967v467h153v-467h-153zM346 967v467h152v-467h-152z" />
    <glyph glyph-name="numbersign" unicode="#" horiz-adv-x="1153" 
d="M252 281l47 227h-215v131h242l39 192h-195v134h223l49 245l131 -10l-47 -235h197l49 245l131 -10l-49 -235h215v-134h-242l-39 -192h197v-131h-225l-47 -238l-131 11l47 227h-199l-47 -238zM459 639h196l39 192h-194z" />
    <glyph glyph-name="dollar" unicode="$" horiz-adv-x="973" 
d="M444 0v72q-126 7 -221 69q-112 73 -174 217l123 56q41 -101 119 -160q62 -44 153 -55v495q-38 15 -73 27q-53 20 -92.5 43t-78.5 59.5t-60 90t-21 120.5q0 117 61.5 196.5t167.5 110.5q45 15 96 21v72h111v-72q86 -11 154 -47q92 -47 149 -146l-117 -59q-41 68 -106 98
q-37 19 -80 25v-438l100 -35q256 -98 256 -328q0 -119 -63.5 -205.5t-179.5 -130.5q-54 -18 -113 -24v-72h-111zM590 647l-35 12v-458q88 12 143 61q74 66 74 166q0 80 -50.5 135t-131.5 84zM424 838q9 -4 20 -7v404q-70 -11 -120 -49q-68 -53 -68 -152q0 -75 44 -120
t124 -76z" />
    <glyph glyph-name="percent" unicode="%" horiz-adv-x="1432" 
d="M348 557q-125 0 -195 70q-69 71 -69 186t69 185q71 71 195 71q123 0 192 -71q70 -70 70 -185q0 -116 -70 -186q-69 -70 -192 -70zM348 666q66 0 105 40.5t39 106.5t-39 105.5t-105 39.5t-104.5 -39.5t-38.5 -105.5t38.5 -106.5t104.5 -40.5zM459 -8l-144 24l660 1053
l143 -25zM1083 -12q-122 0 -192 70t-70 186q0 115 70 185q71 71 192 71q123 0 194 -71t71 -185q0 -115 -71 -186q-70 -70 -194 -70zM940 244q0 -66 39 -106t104 -40q67 0 105.5 39.5t38.5 106.5q0 66 -38.5 106.5t-105.5 40.5q-65 0 -104 -40.5t-39 -106.5z" />
    <glyph glyph-name="ampersand" unicode="&#x26;" horiz-adv-x="1286" 
d="M106 365q0 128 66.5 244.5t189.5 209.5l60 45q-62 79 -107 155q-45 77 -45 169q0 117 81.5 193.5t217.5 76.5q139 0 223.5 -77t84.5 -193q0 -143 -146 -264q-65 -56 -113 -93l349 -436q69 85 110 207l115 -53q-63 -163 -139 -258l198 -242l-108 -88l-178 223
q-89 -93 -205 -146.5t-244 -53.5q-177 0 -293.5 102.5t-116.5 278.5zM254 369q0 -112 76 -182t192 -70q98 0 193 50q93 49 162 130l-363 455q-1 -1 -25.5 -18.5t-27.5 -20.5q-85 -65 -147 -155q-60 -88 -60 -189zM532 948l89 68q112 85 112 174q0 48 -38 92q-37 43 -124 43
q-74 0 -114.5 -40t-40.5 -107q0 -58 29 -108q31 -52 87 -122z" />
    <glyph glyph-name="quotesingle" unicode="'" horiz-adv-x="379" 
d="M113 967v467h153v-467h-153z" />
    <glyph glyph-name="parenleft" unicode="(" horiz-adv-x="674" 
d="M627 -162l-117 -98q-342 362 -342 885q0 149 28 285t78 245.5t108 194.5t128 159l117 -98q-131 -133 -214 -330t-83 -456t83 -455t214 -332z" />
    <glyph glyph-name="parenright" unicode=")" horiz-adv-x="674" 
d="M164 -260l-115 98q295 311 295 787q0 258 -83.5 455t-213.5 331l117 98q342 -364 342 -884q0 -515 -342 -885z" />
    <glyph glyph-name="asterisk" unicode="*" horiz-adv-x="803" 
d="M344 909l4 224l-190 -115l-58 98l193 109l-193 108l58 99l190 -115l-4 221h115l-6 -223l192 117l57 -99l-194 -108l194 -109l-57 -98l-192 115l6 -224h-115z" />
    <glyph glyph-name="plus" unicode="+" horiz-adv-x="1034" 
d="M444 82v375h-372v145h372v373h144v-373h375v-145h-375v-375h-144z" />
    <glyph glyph-name="comma" unicode="," horiz-adv-x="399" 
d="M154 -94q16 43 22 78q-39 4 -63 30q-29 32 -29 76q0 46 30 76.5t83 30.5q52 0 81 -34t29 -89q0 -112 -48.5 -206t-137.5 -161l-55 57q61 68 88 142z" />
    <glyph glyph-name="hyphen" unicode="-" horiz-adv-x="862" 
d="M80 457v145h702v-145h-702z" />
    <glyph glyph-name="period" unicode="." horiz-adv-x="381" 
d="M84 90q0 46 29 76.5t77 30.5q49 0 78 -30.5t29 -76.5t-29 -76t-78 -30q-48 0 -77 30t-29 76z" />
    <glyph glyph-name="slash" unicode="/" horiz-adv-x="817" 
d="M23 -244l616 1780h156l-617 -1780h-155z" />
    <glyph glyph-name="zero" unicode="0" horiz-adv-x="1290" 
d="M645 -16q-257 0 -412 197t-155 536q0 345 153 539t414 194q262 0 414.5 -196.5t152.5 -536.5q0 -342 -154 -537.5t-413 -195.5zM645 129q195 0 303.5 157t108.5 431q0 265 -111.5 426.5t-300.5 161.5q-199 0 -306 -156q-106 -155 -106 -432q0 -269 110 -428.5t302 -159.5
z" />
    <glyph glyph-name="one" unicode="1" horiz-adv-x="647" 
d="M324 0v1243l-199 -162l-33 136l256 217h131v-1434h-155z" />
    <glyph glyph-name="two" unicode="2" horiz-adv-x="1090" 
d="M109 0l600 805q60 82 86 143t26 125q0 111 -71 172.5t-197 61.5q-134 0 -212 -76.5t-87 -190.5h-154q16 186 136 298q119 112 329 112q100 0 180 -29t130 -79.5t76 -115.5t26 -139q0 -87 -35.5 -170t-110.5 -186l-432 -588h613v-143h-903z" />
    <glyph glyph-name="three" unicode="3" horiz-adv-x="1049" 
d="M68 377h157q23 -119 104 -182.5t210 -63.5q126 0 205 74q79 73 79 201q0 50 -18 97t-53 87t-95 64t-137 24h-166v141h164q122 0 191 72.5t69 163.5q0 108 -74.5 179t-187.5 71q-122 0 -189 -65q-65 -64 -81 -159h-152q4 65 32.5 128t78.5 118t131.5 89t181.5 34
q189 0 302.5 -107t113.5 -272q0 -216 -193 -313q114 -48 176 -141.5t62 -221.5q0 -182 -123 -296.5t-324 -114.5q-190 0 -317.5 100t-146.5 293z" />
    <glyph glyph-name="four" unicode="4" horiz-adv-x="1141" 
d="M8 348l735 1086h144v-940h188v-146h-188v-348h-156v348h-723zM287 494h444v673z" />
    <glyph glyph-name="five" unicode="5" horiz-adv-x="1124" 
d="M78 358l145 54q30 -132 117 -207.5t221 -75.5q152 0 245 96.5t93 251.5q0 154 -93 250t-249 96q-167 0 -315 -127l-76 78l61 660h731v-146h-596l-38 -387q122 68 243 68q220 0 354 -137t134 -357q0 -218 -133.5 -354.5t-364.5 -136.5q-189 0 -313.5 96.5t-165.5 277.5z
" />
    <glyph glyph-name="six" unicode="6" horiz-adv-x="1196" 
d="M106 494q0 141 35.5 277.5t103.5 261.5t176.5 231t246.5 176h250q-238 -122 -364.5 -248.5t-205.5 -314.5q132 110 318 110q131 0 235 -66.5t160.5 -180.5t56.5 -253q0 -222 -143 -362.5t-365 -140.5t-363 143t-141 367zM262 492q0 -159 98.5 -261t251.5 -102
q152 0 251.5 103t99.5 260q0 149 -99.5 250.5t-253.5 101.5q-148 0 -248 -98.5t-100 -253.5z" />
    <glyph glyph-name="seven" unicode="7" horiz-adv-x="950" 
d="M145 0l570 1288h-645v146h882l-633 -1434h-174z" />
    <glyph glyph-name="eight" unicode="8" horiz-adv-x="1085" 
d="M92 416q0 132 64 230t178 153q-164 99 -164 293q0 154 107.5 256t267.5 102t268.5 -102t108.5 -254q0 -194 -166 -295q113 -55 176 -153t63 -230q0 -190 -126.5 -311t-325.5 -121q-196 0 -323.5 121t-127.5 311zM246 424q0 -127 83.5 -210t215.5 -83t214.5 83t82.5 210
q0 131 -86 215t-213 84t-212 -85.5t-85 -213.5zM545 862q99 0 160 63q63 65 63 162q0 95 -63 157q-61 63 -160 63q-98 0 -160 -62q-61 -61 -61 -160q0 -91 59 -158q59 -65 162 -65z" />
    <glyph glyph-name="nine" unicode="9" horiz-adv-x="1196" 
d="M1090 946q0 -142 -34.5 -278.5t-101.5 -261t-176 -230.5t-250 -176h-249q237 122 365 249.5t204 313.5q-134 -112 -318 -112q-130 0 -234.5 67.5t-161 182t-56.5 251.5q0 222 143 363t365 141t363 -143.5t141 -366.5zM934 948q0 159 -99 261t-251 102q-153 0 -252 -103.5
t-99 -259.5q0 -151 99.5 -251.5t253.5 -100.5q149 0 248.5 98t99.5 254z" />
    <glyph glyph-name="colon" unicode=":" horiz-adv-x="473" 
d="M238 152q-49 0 -79 30t-30 76t30 76.5t79 30.5q47 0 76.5 -30.5t29.5 -76.5t-29.5 -76t-76.5 -30zM238 713q-49 0 -79 30t-30 76t30 77.5t79 31.5q46 0 76 -31.5t30 -77.5t-29.5 -76t-76.5 -30z" />
    <glyph glyph-name="semicolon" unicode=";" horiz-adv-x="473" 
d="M195 37q16 43 22 78q-39 5 -63 30q-29 32 -29 76q0 47 30.5 77t82.5 30t81 -34t29 -89q0 -112 -48.5 -206t-137.5 -161l-56 58q61 65 89 141zM238 713q-49 0 -79 30t-30 76t30 77.5t79 31.5q46 0 76 -31.5t30 -77.5t-29.5 -76t-76.5 -30z" />
    <glyph glyph-name="less" unicode="&#x3c;" horiz-adv-x="1014" 
d="M121 557l692 326l66 -129l-430 -197l432 -201l-66 -129z" />
    <glyph glyph-name="equal" unicode="=" horiz-adv-x="936" 
d="M127 651v146h682v-146h-682zM127 348v146h682v-146h-682z" />
    <glyph glyph-name="greater" unicode="&#x3e;" horiz-adv-x="1014" 
d="M199 227l-66 129l432 201l-430 197l66 129l692 -326z" />
    <glyph glyph-name="question" unicode="?" horiz-adv-x="1010" 
d="M326 90q0 46 29 76.5t77 30.5t77.5 -30.5t29.5 -76.5t-29.5 -76t-77.5 -30t-77 30t-29 76zM354 387v141q0 51 13.5 96t34 78t52 64t60.5 51.5t66 42.5q8 4 36.5 20.5t37.5 22.5t31 22t31 28.5t21 32t16.5 42t4.5 49.5q0 108 -73.5 168t-168.5 60q-73 0 -143 -38.5
t-123 -113.5l-129 80q139 217 387 217q64 0 122 -13.5t110 -43t90.5 -71.5t60.5 -103.5t22 -135.5q0 -64 -16 -114t-53 -92.5t-74 -72t-102 -73.5q-42 -26 -66.5 -45t-47.5 -46t-33.5 -60.5t-10.5 -77.5v-115h-156z" />
    <glyph glyph-name="at" unicode="@" horiz-adv-x="1722" 
d="M86 526q1 159 59.5 297.5t161 238t251 157t321.5 57.5q347 0 552 -194.5t205 -520.5q0 -207 -85.5 -314.5t-215.5 -107.5q-84 0 -133.5 37t-58.5 98q-124 -141 -299 -141t-285 113.5t-110 283.5t110.5 285t282.5 115q171 0 293 -129v112h125v-530q0 -68 21.5 -97.5
t64.5 -29.5q57 0 105 67t48 226q0 282 -164.5 442t-455.5 160q-147 0 -270.5 -47.5t-207 -130.5t-130 -198t-46.5 -249q0 -178 79 -321t220 -224t316 -81q128 0 223 39q90 36 182 112l111 -74q-209 -200 -512 -200q-214 0 -387.5 96.5t-272 268.5t-98.5 384zM573 530
q0 -121 81.5 -202.5t207.5 -81.5q117 0 195 77.5t78 186.5v33q0 112 -79 193t-196 81q-123 0 -205 -81.5t-82 -205.5z" />
    <glyph glyph-name="A" unicode="A" horiz-adv-x="1315" 
d="M395 479h525l-258 621zM29 0l633 1466l624 -1466h-170l-135 334h-643l-139 -334h-170z" />
    <glyph glyph-name="B" unicode="B" horiz-adv-x="1155" 
d="M129 0v1434h500q203 0 316 -94q114 -93 114 -285q0 -112 -51 -191t-144 -121q106 -39 166 -129.5t60 -218.5q0 -187 -122.5 -291t-312.5 -104h-526zM285 143h346q126 0 212.5 68t86.5 192q0 125 -85 196t-210 71h-350v-527zM285 801h336q53 0 101 13.5t89.5 41.5
t66.5 77.5t25 115.5q0 241 -299 241h-319v-489z" />
    <glyph glyph-name="C" unicode="C" horiz-adv-x="1511" 
d="M66 717q0 155 55.5 291t152.5 233t234.5 153t296.5 56q215 0 384 -99q169 -97 261 -284l-143 -59q-73 138 -202 217q-131 80 -304 80q-254 0 -415 -166.5t-161 -421.5q0 -169 72.5 -303t204 -209.5t299.5 -75.5q175 0 305 79q131 80 201 218l143 -66q-92 -180 -260 -278
q-169 -98 -385 -98q-212 0 -381 95t-263.5 262.5t-94.5 375.5z" />
    <glyph glyph-name="D" unicode="D" horiz-adv-x="1337" 
d="M129 0v1434h401q364 0 553 -180t189 -529q0 -357 -196 -541q-194 -184 -546 -184h-401zM285 143h245q281 0 432 148q152 149 152 430q0 276 -148.5 422.5t-435.5 146.5h-245v-1147z" />
    <glyph glyph-name="E" unicode="E" horiz-adv-x="1110" 
d="M129 0v1434h893v-146h-737v-493h690v-146h-690v-504h768v-145h-924z" />
    <glyph glyph-name="F" unicode="F" horiz-adv-x="1075" 
d="M129 0v1434h893v-146h-737v-493h704v-146h-704v-649h-156z" />
    <glyph glyph-name="G" unicode="G" horiz-adv-x="1544" 
d="M66 715q0 157 55.5 293.5t152.5 233.5t233.5 152.5t293.5 55.5q224 0 391 -103q168 -102 260 -278l-145 -59q-78 139 -207 217t-299 78q-125 0 -232.5 -44.5t-182 -122.5t-117 -187t-42.5 -234q0 -257 160.5 -423.5t413.5 -166.5q169 0 306.5 81t199.5 214l1 32
q1 31 2 72t1 66v35h-549v145h706v-373q-103 -207 -271 -311t-388 -104q-214 0 -384 94.5t-264.5 261.5t-94.5 375z" />
    <glyph glyph-name="H" unicode="H" horiz-adv-x="1407" 
d="M129 0v1434h156v-639h837v639h156v-1434h-156v649h-837v-649h-156z" />
    <glyph glyph-name="I" unicode="I" horiz-adv-x="438" 
d="M141 0v1434h156v-1434h-156z" />
    <glyph glyph-name="J" unicode="J" horiz-adv-x="434" 
d="M158 23v1411h155v-1418q0 -117 -51 -191.5t-153 -92.5q-25 -8 -71.5 -11t-76.5 5l-8 143q38 -9 76 -4q54 6 92 41q37 34 37 117z" />
    <glyph glyph-name="K" unicode="K" horiz-adv-x="1229" 
d="M129 0v1434h156v-686l790 686h199l-612 -553l593 -881h-190l-520 774l-260 -225v-549h-156z" />
    <glyph glyph-name="L" unicode="L" horiz-adv-x="852" 
d="M129 0v1434h156v-1289h544v-145h-700z" />
    <glyph glyph-name="M" unicode="M" horiz-adv-x="1552" 
d="M774 442l-446 602l-72 -1044h-156l97 1466l577 -784l580 784l96 -1466h-156l-71 1044z" />
    <glyph glyph-name="N" unicode="N" horiz-adv-x="1407" 
d="M129 0v1466l993 -1112v1080h156v-1465l-993 1102v-1071h-156z" />
    <glyph glyph-name="O" unicode="O" horiz-adv-x="1599" 
d="M66 717q0 155 55.5 291t152.5 233t233.5 153t293.5 56q155 0 291.5 -56t233 -152.5t152.5 -233t56 -291.5q0 -208 -95 -375.5t-263 -262.5t-375 -95q-157 0 -293.5 55.5t-233.5 152.5t-152.5 233t-55.5 292zM225 715q0 -254 163 -420t413 -166q163 0 294 75.5t205 209.5
t74 301q0 168 -74 303t-205 211t-294 76q-164 0 -296 -76t-206 -211t-74 -303z" />
    <glyph glyph-name="P" unicode="P" horiz-adv-x="1155" 
d="M129 0v1434h508q213 0 347 -127.5t134 -343.5q0 -215 -134 -342t-347 -127h-352v-494h-156zM285 637h352q134 0 227.5 90.5t93.5 235.5q0 144 -93.5 235.5t-227.5 91.5h-352v-653z" />
    <glyph glyph-name="Q" unicode="Q" horiz-adv-x="1606" 
d="M66 717q0 155 55.5 291t152.5 233t233.5 153t293.5 56q155 0 291.5 -56t233 -152.5t152.5 -233t56 -291.5q0 -163 -59.5 -300t-169.5 -235q74 -99 180 -125q29 -6 55 -6v-143q-22 0 -80 8q-49 7 -126 43q-71 34 -144 127q-170 -102 -389 -102q-157 0 -293.5 55.5
t-233.5 152.5t-152.5 233t-55.5 292zM227 717q0 -257 160.5 -423.5t413.5 -166.5q169 0 303 82q-106 170 -236 192q-22 2 -32 2h-37v142q30 7 75 0q197 -23 332 -234q168 160 168 406q0 169 -73 303.5t-204 210.5t-296 76q-253 0 -413.5 -166.5t-160.5 -423.5z" />
    <glyph glyph-name="R" unicode="R" 
d="M129 0v1434h508q135 0 243.5 -52.5t173 -156t64.5 -242.5q0 -160 -86 -267.5t-225 -148.5l334 -567h-176l-312 532h-368v-532h-156zM285 676h352q136 0 228.5 82.5t92.5 224.5t-92.5 224.5t-228.5 82.5h-352v-614z" />
    <glyph glyph-name="S" unicode="S" horiz-adv-x="1098" 
d="M59 309l140 64q101 -246 364 -246q151 0 234 73q84 74 84 189q0 37 -10.5 69.5t-26 56.5t-43.5 47t-51 37t-61.5 30.5t-63 25.5t-66.5 23q-195 57 -284 122q-138 102 -138 283q0 168 121 267.5t311 99.5q277 0 408 -221l-133 -68q-43 75 -116.5 111.5t-164.5 36.5
q-116 0 -193 -61.5t-77 -170.5q0 -58 20.5 -100t73.5 -73t86 -44.5t115 -39.5q5 -2 8 -3q161 -52 231 -90q208 -115 209 -332q0 -182 -128.5 -296.5t-348.5 -114.5q-360 0 -500 325z" />
    <glyph glyph-name="T" unicode="T" horiz-adv-x="1036" 
d="M440 0v1288h-417v146h991v-146h-418v-1288h-156z" />
    <glyph glyph-name="U" unicode="U" horiz-adv-x="1374" 
d="M109 563v873h155v-873q0 -97 22.5 -173.5t71 -135.5t131 -91t195.5 -32q426 0 426 432v873h156v-873q0 -277 -141.5 -428t-440.5 -151q-298 0 -436.5 147t-138.5 432z" />
    <glyph glyph-name="V" unicode="V" horiz-adv-x="1298" 
d="M653 -31l-633 1465h170l463 -1082l455 1082h170z" />
    <glyph glyph-name="W" unicode="W" horiz-adv-x="1872" 
d="M580 -31l-545 1465h166l381 -1043l272 727l-104 287h165l371 -1014l389 1043h166l-553 -1465l-352 936z" />
    <glyph glyph-name="X" unicode="X" horiz-adv-x="1262" 
d="M221 1434l406 -582l407 582h174l-491 -709l506 -725h-189l-413 590l-428 -590h-175l514 719l-499 715h188z" />
    <glyph glyph-name="Y" unicode="Y" horiz-adv-x="1219" 
d="M530 0v535l-507 899h176l409 -738l412 738h178l-512 -902v-532h-156z" />
    <glyph glyph-name="Z" unicode="Z" horiz-adv-x="1161" 
d="M35 0l801 1288h-715v146h981l-801 -1289h811v-145h-1077z" />
    <glyph glyph-name="bracketleft" unicode="[" horiz-adv-x="563" 
d="M317 -115h181v-145h-336v1792h336v-146h-181v-1501z" />
    <glyph glyph-name="backslash" unicode="\" horiz-adv-x="817" 
d="M178 1536l617 -1780h-156l-616 1780h155z" />
    <glyph glyph-name="bracketright" unicode="]" horiz-adv-x="563" 
d="M68 -115h180v1501h-180v146h335v-1792h-335v145z" />
    <glyph glyph-name="asciicircum" unicode="^" horiz-adv-x="776" 
d="M121 592l-86 84l354 368l350 -368l-84 -84l-266 274z" />
    <glyph glyph-name="underscore" unicode="_" horiz-adv-x="1223" 
d="M16 -37v146h1190v-146h-1190z" />
    <glyph glyph-name="grave" unicode="`" horiz-adv-x="584" 
d="M430 1190l-344 209l86 131l326 -240z" />
    <glyph glyph-name="a" unicode="a" horiz-adv-x="1262" 
d="M215 528q0 -178 109.5 -287.5t289.5 -109.5q170 0 274.5 113.5t104.5 283.5t-105 284t-278 114q-180 0 -287.5 -111t-107.5 -287zM57 528q0 240 146.5 390.5t388.5 150.5q118 0 223 -45t178 -123v156h158v-1057h-158v152q-78 -76 -170 -120q-93 -44 -227 -44
q-244 0 -391.5 150.5t-147.5 389.5z" />
    <glyph glyph-name="b" unicode="b" horiz-adv-x="1268" 
d="M1053 528q0 176 -107.5 287t-288.5 111q-172 0 -277.5 -114t-105.5 -284t104.5 -283.5t274.5 -113.5q180 0 290 109.5t110 287.5zM1210 528q0 -239 -147 -389.5t-391 -150.5q-134 0 -228 44q-92 44 -170 120v-152h-157v1434h157v-533q74 78 179 123t223 45
q242 0 388 -150.5t146 -390.5z" />
    <glyph glyph-name="c" unicode="c" horiz-adv-x="1157" 
d="M57 528q0 242 149.5 391.5t407.5 149.5q182 0 307.5 -79.5t186.5 -223.5l-139 -57q-47 102 -137.5 159.5t-219.5 57.5q-176 0 -286.5 -109t-110.5 -289t110.5 -288.5t286.5 -108.5q129 0 219.5 57.5t137.5 159.5l139 -57q-61 -144 -186 -223.5t-308 -79.5
q-258 0 -407.5 149.5t-149.5 390.5z" />
    <glyph glyph-name="d" unicode="d" horiz-adv-x="1268" 
d="M215 528q0 -178 109.5 -287.5t289.5 -109.5q170 0 274.5 113.5t104.5 283.5t-105 284t-278 114q-180 0 -287.5 -111t-107.5 -287zM57 528q0 240 146.5 390.5t388.5 150.5q118 0 223 -45t178 -123v533h158v-1434h-158v152q-78 -76 -170 -120q-93 -44 -227 -44
q-244 0 -391.5 150.5t-147.5 389.5z" />
    <glyph glyph-name="e" unicode="e" horiz-adv-x="1176" 
d="M1120 475h-903q12 -153 114.5 -248.5t266.5 -95.5q112 0 204.5 53t145.5 152l133 -78q-75 -135 -206 -203q-130 -67 -277 -67q-244 0 -392.5 149t-148.5 391t149.5 391.5t383.5 149.5q230 0 381 -145t151 -369v-40q0 -24 -2 -40zM221 612h737q-12 140 -110 230t-256 90
q-148 0 -251.5 -91t-119.5 -229z" />
    <glyph glyph-name="f" unicode="f" horiz-adv-x="645" 
d="M172 0v805h-117v137h117v96q0 213 60 312q61 100 214 100q92 0 177 -49l-56 -121q-42 25 -92 25q-85 0 -117 -65q-30 -64 -30 -200v-98h223v-137h-223v-805h-156z" />
    <glyph glyph-name="g" unicode="g" horiz-adv-x="1255" 
d="M995 104v50q-77 -79 -171 -122q-94 -44 -228 -44q-244 0 -391.5 150.5t-147.5 389.5q0 240 146.5 390.5t388.5 150.5q118 0 223 -45t178 -123v156h158v-959q0 -222 -123 -352q-123 -131 -375 -131q-140 0 -293 51l37 129q50 -16 123.5 -27.5t122.5 -11.5q80 0 141.5 17
t110 55.5t74.5 108t26 167.5zM215 528q0 -176 110 -287.5t291 -111.5q170 0 274.5 113.5t104.5 285.5q0 173 -105 287.5t-276 114.5q-182 0 -290.5 -113t-108.5 -289z" />
    <glyph glyph-name="h" unicode="h" horiz-adv-x="1192" 
d="M117 0v1434h153v-533q51 65 161 116.5t233 51.5q227 0 335.5 -121t108.5 -334v-614h-156v543q0 214 -73.5 298.5t-243.5 84.5q-167 0 -266 -111t-99 -276v-539h-153z" />
    <glyph glyph-name="i" unicode="i" horiz-adv-x="428" 
d="M133 0v1026h160v-1026h-160zM213 1219q-47 0 -73.5 29t-26.5 73t26.5 73t73.5 29q49 0 75.5 -28.5t26.5 -73.5t-26.5 -73.5t-75.5 -28.5z" />
    <glyph glyph-name="j" unicode="j" horiz-adv-x="424" 
d="M141 -70v1096h156v-1126q0 -95 -35 -160.5t-115 -122.5l-92 127q46 44 66 82.5t20 103.5zM219 1219q-47 0 -73.5 29t-26.5 73t26.5 73t73.5 29q49 0 76 -28.5t27 -73.5t-27 -73.5t-76 -28.5z" />
    <glyph glyph-name="k" unicode="k" horiz-adv-x="1028" 
d="M117 0v1434h153v-811l553 434h215l-456 -373l456 -684h-188l-389 573l-191 -145v-428h-153z" />
    <glyph glyph-name="l" unicode="l" horiz-adv-x="389" 
d="M117 0v1434h157v-1434h-157z" />
    <glyph glyph-name="m" unicode="m" horiz-adv-x="1661" 
d="M109 0v1057h155v-156q50 80 122 125q70 43 194 43q86 0 146 -24.5t95 -63.5t68 -104q89 192 330 192q105 0 177 -34t110.5 -102t54.5 -153.5t16 -204.5v-575h-156v504q0 125 -9 200.5t-35.5 128t-71.5 73t-119 20.5q-139 0 -199.5 -89.5t-60.5 -252.5v-584h-156v504
q0 96 -4.5 157t-18 116.5t-38.5 85t-66.5 46.5t-101.5 17q-75 0 -130.5 -32.5t-86.5 -88.5t-45.5 -121.5t-14.5 -140.5v-543h-155z" />
    <glyph glyph-name="n" unicode="n" 
d="M109 0v1057h155v-156q51 64 161 116t232 52q227 0 336 -121t109 -334v-614h-156v543q0 145 -34.5 229.5t-102 119t-180.5 34.5q-167 0 -266 -111t-99 -276v-539h-155z" />
    <glyph glyph-name="o" unicode="o" horiz-adv-x="1223" 
d="M57 528q0 237 153 389t402 152q248 0 400.5 -152t152.5 -389q0 -236 -152.5 -388t-400.5 -152q-249 0 -402 152t-153 388zM215 528q0 -173 110 -285t287 -112q176 0 286 112t110 285t-110 285.5t-286 112.5q-177 0 -287 -112.5t-110 -285.5z" />
    <glyph glyph-name="p" unicode="p" horiz-adv-x="1262" 
d="M1047 528q0 178 -110 288t-290 110q-170 0 -274.5 -114t-104.5 -284t105.5 -283.5t277.5 -113.5q180 0 288 110.5t108 286.5zM1204 528q0 -239 -146.5 -389.5t-387.5 -150.5q-118 0 -223 45t-179 123v-533h-157v1434h157v-152q78 76 170 120q93 44 228 44
q243 0 390.5 -150.5t147.5 -390.5z" />
    <glyph glyph-name="q" unicode="q" horiz-adv-x="1262" 
d="M215 528q0 -176 107.5 -286.5t287.5 -110.5q173 0 278 113.5t105 283.5t-104.5 284t-274.5 114q-180 0 -289.5 -110t-109.5 -288zM57 528q0 240 147.5 390.5t391.5 150.5q134 0 227 -44q92 -44 170 -120v152h158v-1434h-158v533q-73 -78 -178 -123t-223 -45
q-242 0 -388.5 150.5t-146.5 389.5z" />
    <glyph glyph-name="r" unicode="r" horiz-adv-x="659" 
d="M109 0v1057h155v-156q61 87 133.5 127.5t171.5 40.5q39 0 76 -6l-18 -154q-28 6 -64 6q-146 0 -222 -97q-77 -98 -77 -253v-565h-155z" />
    <glyph glyph-name="s" unicode="s" horiz-adv-x="840" 
d="M33 188l104 91q38 -50 70.5 -80t84.5 -52t116 -22q102 0 163.5 47t61.5 127q0 27 -6.5 48.5t-22.5 39t-30 29t-42.5 24t-46 18.5t-54.5 18t-54 18q-44 13 -79 27t-74 38t-65.5 53t-43.5 73t-17 97q0 131 90 209q92 78 246 78q210 0 338 -129l-92 -111q-115 97 -242 97
q-76 0 -130 -36t-54 -102q0 -29 12 -52t29.5 -38.5t50.5 -31t63 -26t79 -25.5q7 -2 10 -3q29 -8 52 -15.5t55 -21.5t56 -29.5t49.5 -40t42.5 -52t27.5 -66t10.5 -82.5q0 -146 -100 -231q-100 -86 -271 -86q-252 0 -387 200z" />
    <glyph glyph-name="t" unicode="t" horiz-adv-x="688" 
d="M176 305v615h-115v137h115v254h156v-254h221v-137h-221v-613q0 -70 35 -123q36 -51 104 -51q64 0 131 37l57 -121q-75 -61 -221 -61q-262 0 -262 317z" />
    <glyph glyph-name="u" unicode="u" 
d="M1077 1057v-1057h-155v156q-51 -65 -161 -116.5t-233 -51.5q-227 0 -335.5 120.5t-108.5 333.5v615h156v-543q0 -215 73 -299t244 -84q166 0 265.5 111t99.5 276v539h155z" />
    <glyph glyph-name="v" unicode="v" horiz-adv-x="1051" 
d="M524 -29l-518 1086h176l342 -756l344 756h176z" />
    <glyph glyph-name="w" unicode="w" horiz-adv-x="1530" 
d="M496 -29l-496 1086h170l322 -740l200 543l-84 197h162l272 -727l320 727h170l-496 -1086l-270 688z" />
    <glyph glyph-name="x" unicode="x" horiz-adv-x="981" 
d="M27 0l362 543l-352 514h186l279 -395l274 395h178l-366 -527l366 -530h-186l-287 403l-278 -403h-176z" />
    <glyph glyph-name="y" unicode="y" horiz-adv-x="1051" 
d="M279 -348l-29 151q53 21 88 51.5t55 84.5l51 124l-424 994h168l340 -805l342 805h170l-508 -1184q-41 -95 -97 -144q-56 -52 -156 -77z" />
    <glyph glyph-name="z" unicode="z" horiz-adv-x="1016" 
d="M43 0l633 913h-574v144h850l-635 -914h652v-143h-926z" />
    <glyph glyph-name="braceleft" unicode="{" horiz-adv-x="727" 
d="M246 76v336q0 83 -30.5 117t-90.5 34h-35v129h41q54 1 85 32q30 30 30 114v354q0 100 24 167.5t72.5 104t109 51.5t146.5 15v-144q-100 0 -148.5 -41t-48.5 -153v-346q0 -173 -77 -217q77 -50 77 -217v-336q0 -112 49 -153.5t148 -41.5v-143q-86 0 -146.5 14.5t-109 51
t-72.5 104.5t-24 168z" />
    <glyph glyph-name="bar" unicode="|" horiz-adv-x="455" 
d="M150 -172v1708h155v-1708h-155z" />
    <glyph glyph-name="braceright" unicode="}" horiz-adv-x="727" 
d="M129 -262v143q97 0 147 42t50 153v336q0 171 77 217q-77 41 -77 217v346q0 111 -50 152.5t-147 41.5v144q84 0 145 -15t109.5 -51.5t73 -104.5t24.5 -167v-354q0 -86 32 -116q31 -30 89 -30h35v-129h-41q-115 0 -115 -151v-336q0 -100 -24.5 -168t-73.5 -104.5
t-109.5 -51t-144.5 -14.5z" />
    <glyph glyph-name="asciitilde" unicode="~" horiz-adv-x="735" 
d="M180 645h-119q0 21 4 44t16.5 51t31.5 50t53 37t78 15q87 0 159 -62q8 -5 23.5 -16t24.5 -17t21.5 -11t23.5 -5q61 0 61 90h119q0 -114 -52 -159q-52 -44 -124 -44q-59 0 -131 56q-10 6 -30.5 20t-30 19t-25.5 10.5t-33 5.5q-34 0 -52 -23t-18 -61z" />
    <glyph glyph-name="exclamdown" unicode="&#xa1;" horiz-adv-x="616" 
d="M231 0v1065h156v-1065h-156zM309 1237q-48 0 -78 30t-30 76t30 76.5t78 30.5t77.5 -30.5t29.5 -76.5t-29.5 -76t-77.5 -30z" />
    <glyph glyph-name="cent" unicode="&#xa2;" horiz-adv-x="1155" 
d="M547 0v158q-222 20 -351.5 168t-129.5 366q0 222 129 369.5t352 167.5v160h119v-158q165 -6 280 -88q114 -82 170 -211l-139 -58q-40 86 -121 147q-79 59 -190 64v-782q111 5 190 64q81 63 121 147l139 -57q-56 -135 -171.5 -214t-278.5 -87v-156h-119zM547 303v778
q-145 -20 -234.5 -125.5t-89.5 -261.5q0 -158 90 -266.5t234 -124.5z" />
    <glyph glyph-name="sterling" unicode="&#xa3;" horiz-adv-x="1200" 
d="M168 -10l-109 86q116 167 263 194q24 72 24 125q0 113 -59 236h-240v131h182q-75 168 -75 295q0 177 124 284t324 107q141 0 248 -61.5t190 -196.5l-125 -66q-62 103 -136.5 148t-176.5 45q-143 0 -222 -76t-79 -190q0 -108 82 -289h401v-131h-344q52 -129 52 -250
q0 -53 -23 -131q42 -10 109.5 -43t132 -58.5t116.5 -25.5q67 0 108 38q39 36 73 93l112 -72q-16 -34 -38.5 -64.5t-56.5 -62t-83 -50.5t-106 -19q-62 0 -135.5 22.5t-128.5 50t-113 51t-92 23.5q-51 0 -103 -38.5t-96 -104.5z" />
    <glyph glyph-name="currency" unicode="&#xa4;" horiz-adv-x="967" 
d="M141 100l-80 82l97 94q-80 110 -80 246q0 143 82 246l-97 96l80 80l97 -96q111 80 243 80q131 0 242 -80l100 100l78 -82l-98 -98q82 -107 82 -246q0 -137 -80 -243l96 -99l-78 -80l-98 99q-104 -80 -244 -80t-243 80zM483 227q121 0 203 85t82 210q0 127 -82.5 212
t-202.5 85q-123 0 -203.5 -84.5t-80.5 -212.5q0 -125 81 -210t203 -85z" />
    <glyph glyph-name="yen" unicode="&#xa5;" horiz-adv-x="1237" 
d="M543 0v406h-326v139h320l-50 88h-270v141h191l-363 643l164 23l379 -682h67l371 682l166 -23l-356 -643h180v-141h-260l-47 -88h307v-139h-318v-406h-155z" />
    <glyph glyph-name="brokenbar" unicode="&#xa6;" horiz-adv-x="455" 
d="M150 -174v700h155v-700h-155zM150 838v698h155v-698h-155z" />
    <glyph glyph-name="section" unicode="&#xa7;" horiz-adv-x="975" 
d="M494 -16q-67 0 -123.5 28t-89.5 80l110 94q15 -28 41.5 -44.5t56.5 -16.5q41 0 68 26.5t27 65.5q0 26 -17 53.5t-50.5 56t-62.5 50t-74.5 52t-64.5 44.5q-61 45 -100.5 80t-77.5 82.5t-56 103.5t-18 123q0 115 60 195.5t170 122.5q-8 29 -4 63q7 91 77 156q71 65 181 65
q65 0 121.5 -28.5t91.5 -79.5l-111 -94q-32 59 -100 59q-45 0 -72.5 -27.5t-27.5 -70.5q0 -17 7 -34.5t23 -35t31 -32t41 -33.5t43 -30.5t47.5 -31.5t44.5 -29q69 -47 114.5 -87t85 -89.5t58.5 -107t19 -125.5q0 -115 -59.5 -199.5t-164.5 -126.5q6 -31 6 -59
q-6 -99 -77 -159q-70 -60 -174 -60zM662 387q147 61 147 205q0 89 -53.5 156.5t-151.5 136.5q-13 9 -69.5 46.5t-98 69.5t-65.5 62q-150 -69 -150 -205q0 -84 51 -147.5t152 -139.5q16 -12 72 -50.5t99 -72t67 -61.5z" />
    <glyph glyph-name="dieresis" unicode="&#xa8;" horiz-adv-x="657" 
d="M195 1260q-41 0 -66 26t-25 64q0 40 24.5 66t66.5 26q41 0 65.5 -26t24.5 -66q0 -38 -25 -64t-65 -26zM463 1260q-40 0 -65 26t-25 64q0 40 24.5 66t65.5 26q42 0 66 -26t24 -66q0 -38 -24.5 -64t-65.5 -26z" />
    <glyph glyph-name="copyright" unicode="&#xa9;" horiz-adv-x="1337" 
d="M672 168q210 0 356 144.5t146 359.5q0 143 -67.5 259.5t-182.5 181.5t-252 65t-253.5 -65t-185.5 -182t-69 -259t69 -258t185.5 -181t253.5 -65zM676 297q-167 0 -270 104t-103 269q0 163 103 266.5t270 103.5q117 0 203.5 -55t130.5 -151l-115 -50q-68 140 -219 140
q-112 0 -179 -72q-67 -71 -67 -182q0 -112 68.5 -184t177.5 -72q152 0 219 139l115 -51q-44 -95 -131 -150t-203 -55zM672 72q-164 0 -302.5 77.5t-220 216t-81.5 306.5q0 127 48 239t129.5 191t192.5 124.5t234 45.5t233.5 -45.5t191 -124.5t128 -191t47.5 -239
q0 -169 -80.5 -307t-218 -215.5t-301.5 -77.5z" />
    <glyph glyph-name="ordfeminine" unicode="&#xaa;" horiz-adv-x="715" 
d="M334 899q-119 0 -196 79t-77 198q0 115 77.5 194.5t195.5 79.5q112 0 184 -80v72h123v-535h-123v72q-68 -80 -184 -80zM346 1012q68 0 114 46t46 118q0 66 -46.5 115.5t-113.5 49.5q-70 0 -115 -47q-45 -46 -45 -118q0 -70 45 -117t115 -47z" />
    <glyph glyph-name="guillemotleft" unicode="&#xab;" horiz-adv-x="934" 
d="M422 528l297 297h172l-295 -297l297 -290l-174 -7zM367 225l-291 301l293 303h172l-293 -303l293 -295z" />
    <glyph glyph-name="logicalnot" unicode="&#xac;" horiz-adv-x="1042" 
d="M72 442v146h889v-488h-146v342h-743z" />
    <glyph glyph-name="uni00AD" unicode="&#xad;" horiz-adv-x="821" 
d="M78 492v73h665v-73h-665z" />
    <glyph glyph-name="registered" unicode="&#xae;" horiz-adv-x="1337" 
d="M420 332v692h317q103 0 170 -57q68 -56 68 -160q0 -86 -45 -134t-109 -69l150 -254l-111 -24l-155 264h-173v-258h-112zM528 696h203q58 0 92.5 29t34.5 80q0 54 -35 81t-92 27h-203v-217zM672 72q-164 0 -302.5 77.5t-220 216t-81.5 306.5q0 127 48 239t129.5 191
t192.5 124.5t234 45.5t233.5 -45.5t191 -124.5t128 -191t47.5 -239q0 -169 -80.5 -307t-218 -215.5t-301.5 -77.5zM672 168q210 0 356 144.5t146 359.5q0 143 -67.5 259.5t-182.5 181.5t-252 65t-253.5 -65t-185.5 -182t-69 -259t69 -258t185.5 -181t253.5 -65z" />
    <glyph glyph-name="macron" unicode="&#xaf;" horiz-adv-x="588" 
d="M53 1278v133h482v-133h-482z" />
    <glyph glyph-name="degree" unicode="&#xb0;" horiz-adv-x="1014" 
d="M508 924q-156 0 -260 108q-109 109 -109 260q0 152 109 260q103 109 260 109q155 0 258 -109q108 -108 108 -260q0 -150 -108 -260q-104 -108 -258 -108zM508 1026q110 0 188 78t78 188q0 111 -78 189q-76 80 -188 80q-115 0 -191 -80q-77 -79 -77 -189q0 -109 77 -188
q78 -78 191 -78z" />
    <glyph glyph-name="plusminus" unicode="&#xb1;" horiz-adv-x="1378" 
d="M633 262v569h-572v115h572v576h117v-576h569v-115h-569v-569h-117zM61 0v117h1258v-117h-1258z" />
    <glyph glyph-name="twosuperior" unicode="&#xb2;" horiz-adv-x="494" 
d="M53 897l248 297q39 45 39 78q0 28 -19.5 47.5t-48.5 19.5q-37 0 -59.5 -22t-22.5 -60h-112q5 94 60 140q58 47 138 47q84 0 131 -47q48 -47 48 -117q0 -33 -14.5 -64t-47.5 -77q-2 -5 -54.5 -67t-57.5 -71h192v-104h-420z" />
    <glyph glyph-name="threesuperior" unicode="&#xb3;" horiz-adv-x="510" 
d="M266 891q-75 0 -128.5 42t-65.5 116l104 24q4 -36 28 -58t62 -22q35 0 55.5 19.5t20.5 52.5q0 65 -78 65h-53v99h47q33 0 49.5 16.5t16.5 42.5q0 27 -19 44.5t-49 17.5q-31 0 -50.5 -17t-23.5 -51l-98 23q10 63 58 101t120 38q79 0 126.5 -40.5t47.5 -111.5
q0 -68 -47 -106q35 -27 49.5 -54.5t14.5 -70.5q0 -77 -49.5 -123.5t-137.5 -46.5z" />
    <glyph glyph-name="acute" unicode="&#xb4;" horiz-adv-x="584" 
d="M242 1190l-68 100l326 240l86 -131z" />
    <glyph glyph-name="mu" unicode="&#xb5;" horiz-adv-x="1446" 
d="M219 -102q17 150 17 243v955h200v-688q0 -126 23 -177q18 -53 69 -86q59 -32 107 -32q67 0 147 39q86 36 174 118v826h199v-721q0 -158 12 -201q9 -37 31 -59q22 -17 47 -17q29 0 58 29q24 32 36 119h47q-18 -162 -77 -221q-60 -62 -150 -62q-86 0 -139 53
q-55 55 -64 187q-115 -129 -233 -189q-114 -53 -188 -53q-56 0 -107 23q-54 20 -100 61q-2 -169 28 -303q23 -85 23 -129q0 -68 -31 -105q-33 -38 -76 -38q-45 0 -69 34q-37 43 -37 113q0 48 12 84q35 127 41 197z" />
    <glyph glyph-name="paragraph" unicode="&#xb6;" horiz-adv-x="1198" 
d="M506 -283v832q-188 0 -315.5 127t-127.5 313q0 188 127.5 316.5t315.5 128.5h620v-144h-139v-1573h-156v1573h-169v-1573h-156zM506 690v600q-123 0 -205 -86.5t-82 -214.5q0 -126 82.5 -212.5t204.5 -86.5z" />
    <glyph glyph-name="periodcentered" unicode="&#xb7;" horiz-adv-x="467" 
d="M233 422q-48 0 -77 30t-29 76t29 77.5t77 31.5q49 0 78 -31t29 -78q0 -46 -29 -76t-78 -30z" />
    <glyph glyph-name="cedilla" unicode="&#xb8;" horiz-adv-x="596" 
d="M135 -143l125 198l98 -57l-41 -70q57 0 107.5 -44t50.5 -117q0 -72 -52 -120q-53 -48 -124 -48q-43 0 -83.5 20t-63.5 57l102 66q22 -27 49 -27t40 15.5t13 38.5q0 25 -16 40t-45 15q-36 0 -64 -21z" />
    <glyph glyph-name="onesuperior" unicode="&#xb9;" horiz-adv-x="352" 
d="M164 899v387l-78 -59l-33 98l127 109h99v-535h-115z" />
    <glyph glyph-name="ordmasculine" unicode="&#xba;" horiz-adv-x="692" 
d="M346 899q-125 0 -205 79t-80 198q0 116 80 195t205 79t205 -79t80 -195q0 -119 -80 -198t-205 -79zM346 1012q70 0 115 47t45 117t-45 116q-45 47 -115 47t-115 -47q-45 -46 -45 -116t45 -117t115 -47z" />
    <glyph glyph-name="guillemotright" unicode="&#xbb;" horiz-adv-x="934" 
d="M217 825l297 -297l-297 -297l-174 7l297 290l-295 297h172zM860 526l-291 -301l-174 6l293 295l-293 303h172z" />
    <glyph glyph-name="onequarter" unicode="&#xbc;" horiz-adv-x="1190" 
d="M184 16l656 1053l141 -25l-657 -1052zM178 522v387l-78 -59l-32 98l127 109h98v-535h-115zM768 145l102 25q4 -36 28.5 -58t62.5 -22q34 0 54.5 19.5t20.5 52.5q0 67 -75 67h-56v99h49q64 0 64 57q0 61 -70 61q-57 0 -69 -67l-101 22q10 65 59 102.5t121 37.5
q77 0 124.5 -40.5t47.5 -111.5q0 -66 -45 -106q35 -25 49.5 -53.5t14.5 -71.5q0 -77 -49.5 -123.5t-136.5 -46.5q-76 0 -129.5 42t-65.5 115z" />
    <glyph glyph-name="onehalf" unicode="&#xbd;" horiz-adv-x="1202" 
d="M180 522v387l-78 -59l-32 98l127 109h98v-535h-115zM184 16l656 1053l143 -25l-657 -1052zM741 0l248 301q39 36 39 76q0 26 -20.5 45.5t-49.5 19.5q-73 0 -79 -82h-113q2 93 59 140q59 47 138 47q78 0 128 -46q52 -46 52 -118q0 -52 -62 -139q-2 -4 -53.5 -67t-58.5 -75
h190v-102h-418z" />
    <glyph glyph-name="threequarters" unicode="&#xbe;" horiz-adv-x="1198" 
d="M63 672l103 24q4 -35 28 -57.5t64 -22.5q35 0 54.5 19.5t19.5 52.5q0 68 -76 68h-55v98h49q65 0 65 57q0 29 -18 45.5t-51 16.5q-58 0 -72 -68l-100 23q10 63 59 101t121 38q79 0 126.5 -40.5t47.5 -111.5q0 -68 -47 -106q35 -24 49 -53t14 -72q0 -77 -49.5 -123.5
t-136.5 -46.5q-76 0 -129 42t-66 116zM213 16l655 1053l144 -25l-658 -1052zM705 207l262 338h123v-334h63v-100h-63v-111h-105v111h-321zM838 211h147v190z" />
    <glyph glyph-name="questiondown" unicode="&#xbf;" horiz-adv-x="1010" 
d="M684 1343q0 -46 -29 -76t-77 -30q-49 0 -78 30t-29 76q0 47 29 77t78 30q48 0 77 -30t29 -77zM655 1047v-142q0 -63 -18.5 -116t-54 -93t-70 -67t-82.5 -56q-11 -6 -33.5 -19.5t-33 -19.5t-29 -19t-27.5 -22.5t-21.5 -24.5t-18.5 -30.5t-10.5 -36.5t-4.5 -45
q0 -107 73.5 -167t168.5 -60q72 0 142.5 38.5t123.5 113.5l129 -80q-139 -217 -387 -217q-80 0 -151 22t-129 65t-92 115t-34 164q0 64 17 116t54 94t75 72.5t100 69.5q70 46 114 93t44 137v115h155z" />
    <glyph glyph-name="Agrave" unicode="&#xc0;" horiz-adv-x="1315" 
d="M395 479h525l-258 621zM29 0l633 1466l624 -1466h-170l-135 334h-643l-139 -334h-170zM782 1569l-344 209l86 131l326 -242z" />
    <glyph glyph-name="Aacute" unicode="&#xc1;" horiz-adv-x="1315" 
d="M395 479h525l-258 621zM29 0l633 1466l624 -1466h-170l-135 334h-643l-139 -334h-170zM543 1512l-68 100l326 240l86 -131z" />
    <glyph glyph-name="Acircumflex" unicode="&#xc2;" horiz-adv-x="1315" 
d="M395 479h525l-258 621zM29 0l633 1466l624 -1466h-170l-135 334h-643l-139 -334h-170zM434 1504l-82 84l313 270l310 -268l-80 -86l-230 186z" />
    <glyph glyph-name="Atilde" unicode="&#xc3;" horiz-adv-x="1315" 
d="M395 479h525l-258 621zM29 0l633 1466l624 -1466h-170l-135 334h-643l-139 -334h-170zM467 1577h-118q0 23 10 53.5t30.5 64t60.5 56.5t93 23q45 0 85 -17.5t63.5 -38t50.5 -38t49 -17.5q33 0 48 21.5t22 67.5h120q-8 -105 -62 -153t-126 -48q-41 0 -77.5 17t-58 38
t-50.5 38t-58 17q-33 0 -55 -23.5t-27 -60.5z" />
    <glyph glyph-name="Adieresis" unicode="&#xc4;" horiz-adv-x="1315" 
d="M395 479h525l-258 621zM29 0l633 1466l624 -1466h-170l-135 334h-643l-139 -334h-170zM531 1582q-41 0 -66 26t-25 64q0 40 24.5 66t66.5 26q41 0 65.5 -26t24.5 -66q0 -38 -25 -64t-65 -26zM799 1582q-40 0 -65 26t-25 64q0 40 24.5 66t65.5 26q42 0 66 -26t24 -66
q0 -38 -24.5 -64t-65.5 -26z" />
    <glyph glyph-name="Aring" unicode="&#xc5;" horiz-adv-x="1315" 
d="M395 479h525l-258 621zM29 0l633 1466l624 -1466h-170l-135 334h-643l-139 -334h-170zM663 1532q-77 0 -119 46t-42 113q0 71 42.5 115.5t118.5 44.5q78 0 120 -44t42 -116q0 -70 -42.5 -114.5t-119.5 -44.5zM663 1622q34 0 52 19.5t18 49.5q0 31 -18 50.5t-52 19.5
q-31 0 -50 -20t-19 -50q0 -29 19 -49t50 -20z" />
    <glyph glyph-name="AE" unicode="&#xc6;" horiz-adv-x="1976" 
d="M37 20l954 1414h895v-146h-739v-493h690v-146h-690v-504h768v-145h-924v365h-547l-251 -371zM543 510h448v657z" />
    <glyph glyph-name="Ccedilla" unicode="&#xc7;" horiz-adv-x="1511" 
d="M594 -143l84 139q-271 36 -441.5 235.5t-170.5 485.5q0 155 55.5 291t152.5 233t234.5 153t296.5 56q215 0 384 -99q169 -97 261 -284l-143 -59q-73 138 -202 218q-131 81 -304 81q-253 0 -413.5 -166.5t-160.5 -423.5t160.5 -423.5t413.5 -166.5q174 0 305 80
q130 79 201 219l143 -66q-92 -180 -256 -276t-387 -100l-33 -56q58 0 108 -44t50 -117q0 -72 -48 -120t-124 -48q-107 0 -150 77l103 66q19 -27 47 -27q26 0 39.5 15.5t13.5 38.5q0 24 -17 39.5t-44 15.5q-33 0 -64 -23z" />
    <glyph glyph-name="Egrave" unicode="&#xc8;" horiz-adv-x="1110" 
d="M129 0v1434h893v-146h-737v-493h690v-146h-690v-504h768v-145h-924zM727 1512l-344 209l86 131l326 -240z" />
    <glyph glyph-name="Eacute" unicode="&#xc9;" horiz-adv-x="1110" 
d="M463 1512l-68 100l326 240l86 -131zM129 0v1434h893v-146h-737v-493h690v-146h-690v-504h768v-145h-924z" />
    <glyph glyph-name="Ecircumflex" unicode="&#xca;" horiz-adv-x="1110" 
d="M360 1504l-82 84l313 270l310 -268l-80 -86l-230 186zM129 0v1434h893v-146h-737v-493h690v-146h-690v-504h768v-145h-924z" />
    <glyph glyph-name="Edieresis" unicode="&#xcb;" horiz-adv-x="1110" 
d="M441 1582q-41 0 -66 26t-25 64q0 40 24.5 66t66.5 26q41 0 65.5 -26t24.5 -66q0 -38 -25 -64t-65 -26zM709 1582q-40 0 -65 26t-25 64q0 40 24.5 66t65.5 26q42 0 66 -26t24 -66q0 -38 -24.5 -64t-65.5 -26zM129 0v1434h893v-146h-737v-493h690v-146h-690v-504h768v-145
h-924z" />
    <glyph glyph-name="Igrave" unicode="&#xcc;" horiz-adv-x="438" 
d="M157 0v1434h156v-1434h-156z" />
    <glyph glyph-name="Iacute" unicode="&#xcd;" horiz-adv-x="438" 
d="M157 0v1434h156v-1434h-156zM100 1512l-68 100l326 240l86 -131z" />
    <glyph glyph-name="Icircumflex" unicode="&#xce;" horiz-adv-x="438" 
d="M157 0v1434h156v-1434h-156zM7 1504l-82 84l313 270l310 -268l-80 -86l-230 186z" />
    <glyph glyph-name="Idieresis" unicode="&#xcf;" horiz-adv-x="438" 
d="M157 0v1434h156v-1434h-156zM104 1582q-41 0 -66 26t-25 64q0 40 24.5 66t66.5 26q41 0 65.5 -26t24.5 -66q0 -38 -25 -64t-65 -26zM372 1582q-40 0 -65 26t-25 64q0 40 24.5 66t65.5 26q42 0 66 -26t24 -66q0 -38 -24.5 -64t-65.5 -26z" />
    <glyph glyph-name="Eth" unicode="&#xd0;" horiz-adv-x="1501" 
d="M297 0v643h-256v156h256v635h401q364 0 553 -180t189 -529q0 -357 -196 -541q-194 -184 -546 -184h-401zM453 143h245q281 0 432 148q152 149 152 430q0 276 -148.5 422.5t-435.5 146.5h-245v-491h438v-156h-438v-500z" />
    <glyph glyph-name="Ntilde" unicode="&#xd1;" horiz-adv-x="1407" 
d="M129 0v1466l993 -1112v1080h156v-1465l-993 1102v-1071h-156zM493 1577h-118q0 23 10 53.5t30.5 64t60.5 56.5t93 23q45 0 85 -17.5t63.5 -38t50.5 -38t49 -17.5q33 0 48 21.5t22 67.5h120q-8 -105 -62 -153t-126 -48q-41 0 -77.5 17t-58 38t-50.5 38t-58 17
q-33 0 -55 -23.5t-27 -60.5z" />
    <glyph glyph-name="Ograve" unicode="&#xd2;" horiz-adv-x="1599" 
d="M66 717q0 155 55.5 291t152.5 233t233.5 153t293.5 56q155 0 291.5 -56t233 -152.5t152.5 -233t56 -291.5q0 -208 -95 -375.5t-263 -262.5t-375 -95q-157 0 -293.5 55.5t-233.5 152.5t-152.5 233t-55.5 292zM225 715q0 -254 163 -420t413 -166q163 0 294 75.5t205 209.5
t74 301q0 168 -74 303t-205 211t-294 76q-164 0 -296 -76t-206 -211t-74 -303zM932 1512l-344 209l86 131l326 -240z" />
    <glyph glyph-name="Oacute" unicode="&#xd3;" horiz-adv-x="1599" 
d="M670 1512l-68 100l326 240l86 -131zM66 717q0 155 55.5 291t152.5 233t233.5 153t293.5 56q155 0 291.5 -56t233 -152.5t152.5 -233t56 -291.5q0 -208 -95 -375.5t-263 -262.5t-375 -95q-157 0 -293.5 55.5t-233.5 152.5t-152.5 233t-55.5 292zM225 715q0 -254 163 -420
t413 -166q163 0 294 75.5t205 209.5t74 301q0 168 -74 303t-205 211t-294 76q-164 0 -296 -76t-206 -211t-74 -303z" />
    <glyph glyph-name="Ocircumflex" unicode="&#xd4;" horiz-adv-x="1599" 
d="M569 1504l-82 84l313 270l310 -268l-80 -86l-230 186zM66 717q0 155 55.5 291t152.5 233t233.5 153t293.5 56q155 0 291.5 -56t233 -152.5t152.5 -233t56 -291.5q0 -208 -95 -375.5t-263 -262.5t-375 -95q-157 0 -293.5 55.5t-233.5 152.5t-152.5 233t-55.5 292zM225 715
q0 -254 163 -420t413 -166q163 0 294 75.5t205 209.5t74 301q0 168 -74 303t-205 211t-294 76q-164 0 -296 -76t-206 -211t-74 -303z" />
    <glyph glyph-name="Otilde" unicode="&#xd5;" horiz-adv-x="1599" 
d="M66 717q0 155 55.5 291t152.5 233t233.5 153t293.5 56q155 0 291.5 -56t233 -152.5t152.5 -233t56 -291.5q0 -208 -95 -375.5t-263 -262.5t-375 -95q-157 0 -293.5 55.5t-233.5 152.5t-152.5 233t-55.5 292zM225 715q0 -254 163 -420t413 -166q163 0 294 75.5t205 209.5
t74 301q0 168 -74 303t-205 211t-294 76q-164 0 -296 -76t-206 -211t-74 -303zM602 1577h-118q0 23 10 53.5t30.5 64t60.5 56.5t93 23q45 0 85 -17.5t63.5 -38t50.5 -38t49 -17.5q33 0 48 21.5t22 67.5h120q-8 -105 -62 -153t-126 -48q-41 0 -77.5 17t-58 38t-50.5 38
t-58 17q-33 0 -55 -23.5t-27 -60.5z" />
    <glyph glyph-name="Odieresis" unicode="&#xd6;" horiz-adv-x="1599" 
d="M668 1582q-41 0 -66 26t-25 64q0 40 24.5 66t66.5 26q41 0 65.5 -26t24.5 -66q0 -38 -25 -64t-65 -26zM936 1582q-40 0 -65 26t-25 64q0 40 24.5 66t65.5 26q42 0 66 -26t24 -66q0 -38 -24.5 -64t-65.5 -26zM66 717q0 155 55.5 291t152.5 233t233.5 153t293.5 56
q155 0 291.5 -56t233 -152.5t152.5 -233t56 -291.5q0 -208 -95 -375.5t-263 -262.5t-375 -95q-157 0 -293.5 55.5t-233.5 152.5t-152.5 233t-55.5 292zM225 715q0 -254 163 -420t413 -166q163 0 294 75.5t205 209.5t74 301q0 168 -74 303t-205 211t-294 76q-164 0 -296 -76
t-206 -211t-74 -303z" />
    <glyph glyph-name="multiply" unicode="&#xd7;" horiz-adv-x="883" 
d="M168 152l-105 104l273 272l-273 275l105 106l272 -274l275 274l106 -106l-274 -275l274 -272l-106 -104l-275 272z" />
    <glyph glyph-name="Oslash" unicode="&#xd8;" horiz-adv-x="1599" 
d="M86 94l145 146q-165 205 -165 477q0 155 55.5 291t152.5 233t233.5 153t293.5 56q271 0 473 -164l149 148l95 -95l-148 -147q164 -202 164 -475q0 -208 -95 -375.5t-263 -262.5t-375 -95q-273 0 -473 161l-148 -145zM344 354l823 824q-151 129 -366 129
q-253 0 -413.5 -166.5t-160.5 -423.5q0 -209 117 -363zM1257 1075l-823 -823q152 -125 367 -125q165 0 296 76t204 210.5t73 303.5q0 210 -117 358z" />
    <glyph glyph-name="Ugrave" unicode="&#xd9;" horiz-adv-x="1374" 
d="M109 563v873h155v-873q0 -97 22.5 -173.5t71 -135.5t131 -91t195.5 -32q426 0 426 432v873h156v-873q0 -277 -141.5 -428t-440.5 -151q-298 0 -436.5 147t-138.5 432zM825 1512l-344 209l86 131l326 -240z" />
    <glyph glyph-name="Uacute" unicode="&#xda;" horiz-adv-x="1374" 
d="M549 1512l-68 100l326 240l86 -131zM109 563v873h155v-873q0 -97 22.5 -173.5t71 -135.5t131 -91t195.5 -32q426 0 426 432v873h156v-873q0 -277 -141.5 -428t-440.5 -151q-298 0 -436.5 147t-138.5 432z" />
    <glyph glyph-name="Ucircumflex" unicode="&#xdb;" horiz-adv-x="1374" 
d="M457 1504l-82 84l313 270l310 -268l-80 -86l-230 186zM109 563v873h155v-873q0 -97 22.5 -173.5t71 -135.5t131 -91t195.5 -32q426 0 426 432v873h156v-873q0 -277 -141.5 -428t-440.5 -151q-298 0 -436.5 147t-138.5 432z" />
    <glyph glyph-name="Udieresis" unicode="&#xdc;" horiz-adv-x="1374" 
d="M553 1582q-41 0 -66 26t-25 64q0 40 24.5 66t66.5 26q41 0 65.5 -26t24.5 -66q0 -38 -25 -64t-65 -26zM821 1582q-40 0 -65 26t-25 64q0 40 24.5 66t65.5 26q42 0 66 -26t24 -66q0 -38 -24.5 -64t-65.5 -26zM109 563v873h155v-873q0 -97 22.5 -173.5t71 -135.5t131 -91
t195.5 -32q426 0 426 432v873h156v-873q0 -277 -141.5 -428t-440.5 -151q-298 0 -436.5 147t-138.5 432z" />
    <glyph glyph-name="Yacute" unicode="&#xdd;" horiz-adv-x="1219" 
d="M530 0v535l-507 899h176l409 -738l412 738h178l-512 -902v-532h-156zM471 1512l-68 100l326 240l86 -131z" />
    <glyph glyph-name="Thorn" unicode="&#xde;" horiz-adv-x="1143" 
d="M129 0v1434h156v-201h338q207 0 344 -129.5t137 -337.5q0 -139 -63.5 -246t-172.5 -164t-245 -57h-338v-299h-156zM285 442h338q136 0 229.5 89.5t93.5 234.5q0 146 -93.5 235t-229.5 89h-338v-648z" />
    <glyph glyph-name="germandbls" unicode="&#xdf;" horiz-adv-x="1069" 
d="M127 0v1073q0 198 135 299q104 78 252 78q51 0 103.5 -12t105 -40t92.5 -68t65 -101.5t25 -136.5q0 -178 -125 -279q122 -48 189 -147t67 -240q0 -190 -115 -313t-311 -123q-85 0 -159 37l18 133q60 -25 119 -25q140 0 216 85q77 86 77 216q0 125 -76 204.5t-221 94.5
v109q93 34 131 102q37 67 37 135q0 108 -72.5 168t-167.5 60q-43 0 -82 -13.5t-73 -41t-54 -75.5t-20 -110v-1069h-156z" />
    <glyph glyph-name="agrave" unicode="&#xe0;" horiz-adv-x="1262" 
d="M215 528q0 -178 109.5 -287.5t289.5 -109.5q170 0 274.5 113.5t104.5 283.5t-105 284t-278 114q-180 0 -287.5 -111t-107.5 -287zM57 528q0 240 146.5 390.5t388.5 150.5q118 0 223 -45t178 -123v156h158v-1057h-158v152q-78 -76 -170 -120q-93 -44 -227 -44
q-244 0 -391.5 150.5t-147.5 389.5zM743 1140l-344 209l86 131l326 -240z" />
    <glyph glyph-name="aacute" unicode="&#xe1;" horiz-adv-x="1262" 
d="M215 528q0 -178 109.5 -287.5t289.5 -109.5q170 0 274.5 113.5t104.5 283.5t-105 284t-278 114q-180 0 -287.5 -111t-107.5 -287zM57 528q0 240 146.5 390.5t388.5 150.5q118 0 223 -45t178 -123v156h158v-1057h-158v152q-78 -76 -170 -120q-93 -44 -227 -44
q-244 0 -391.5 150.5t-147.5 389.5zM467 1140l-68 100l326 240l86 -131z" />
    <glyph glyph-name="acircumflex" unicode="&#xe2;" horiz-adv-x="1262" 
d="M215 528q0 -178 109.5 -287.5t289.5 -109.5q170 0 274.5 113.5t104.5 283.5t-105 284t-278 114q-180 0 -287.5 -111t-107.5 -287zM57 528q0 240 146.5 390.5t388.5 150.5q118 0 223 -45t178 -123v156h158v-1057h-158v152q-78 -76 -170 -120q-93 -44 -227 -44
q-244 0 -391.5 150.5t-147.5 389.5zM375 1132l-82 84l313 270l310 -268l-80 -86l-230 186z" />
    <glyph glyph-name="atilde" unicode="&#xe3;" horiz-adv-x="1262" 
d="M215 528q0 -178 109.5 -287.5t289.5 -109.5q170 0 274.5 113.5t104.5 283.5t-105 284t-278 114q-180 0 -287.5 -111t-107.5 -287zM57 528q0 240 146.5 390.5t388.5 150.5q118 0 223 -45t178 -123v156h158v-1057h-158v152q-78 -76 -170 -120q-93 -44 -227 -44
q-244 0 -391.5 150.5t-147.5 389.5zM407 1205h-118q0 23 10 53.5t30.5 64t60.5 56.5t93 23q45 0 85 -17.5t63.5 -38t50.5 -38t49 -17.5q33 0 48 21.5t22 67.5h120q-8 -105 -62 -153t-126 -48q-41 0 -77.5 17t-58 38t-50.5 38t-58 17q-33 0 -55 -23.5t-27 -60.5z" />
    <glyph glyph-name="adieresis" unicode="&#xe4;" horiz-adv-x="1262" 
d="M215 528q0 -178 109.5 -287.5t289.5 -109.5q170 0 274.5 113.5t104.5 283.5t-105 284t-278 114q-180 0 -287.5 -111t-107.5 -287zM57 528q0 240 146.5 390.5t388.5 150.5q118 0 223 -45t178 -123v156h158v-1057h-158v152q-78 -76 -170 -120q-93 -44 -227 -44
q-244 0 -391.5 150.5t-147.5 389.5zM471 1210q-41 0 -66 26t-25 64q0 40 24.5 66t66.5 26q41 0 65.5 -26t24.5 -66q0 -38 -25 -64t-65 -26zM739 1210q-40 0 -65 26t-25 64q0 40 24.5 66t65.5 26q42 0 66 -26t24 -66q0 -38 -24.5 -64t-65.5 -26z" />
    <glyph glyph-name="aring" unicode="&#xe5;" horiz-adv-x="1262" 
d="M215 528q0 -178 109.5 -287.5t289.5 -109.5q170 0 274.5 113.5t104.5 283.5t-105 284t-278 114q-180 0 -287.5 -111t-107.5 -287zM57 528q0 240 146.5 390.5t388.5 150.5q118 0 223 -45t178 -123v156h158v-1057h-158v152q-78 -76 -170 -120q-93 -44 -227 -44
q-244 0 -391.5 150.5t-147.5 389.5zM604 1134q-77 0 -119 46t-42 113q0 71 42.5 115.5t118.5 44.5q78 0 120 -44t42 -116q0 -70 -42.5 -114.5t-119.5 -44.5zM604 1224q34 0 52 19.5t18 49.5q0 31 -18 50.5t-52 19.5q-31 0 -50 -20t-19 -50q0 -29 19 -49t50 -20z" />
    <glyph glyph-name="ae" unicode="&#xe6;" horiz-adv-x="2255" 
d="M57 528q0 240 147.5 390.5t389.5 150.5q124 0 209.5 -41.5t189.5 -126.5v156h158v-236q69 118 188.5 183t272.5 65q236 0 384 -147.5t148 -389.5v-53h-905q8 -149 114 -248.5t265 -99.5q113 0 206.5 53.5t143.5 151.5l135 -78q-75 -135 -206 -203q-130 -67 -277 -67
q-160 0 -280 64.5t-189 183.5v-236h-158v152q-96 -82 -183.5 -123t-213.5 -41q-244 0 -391.5 150.5t-147.5 389.5zM215 528q0 -176 108 -286.5t289 -110.5q168 0 274.5 113t106.5 278v15q0 164 -106.5 276.5t-274.5 112.5q-181 0 -289 -111t-108 -287zM1241 604h739
q-13 147 -109 238q-95 90 -259 90q-150 -1 -251 -91.5t-120 -236.5z" />
    <glyph glyph-name="ccedilla" unicode="&#xe7;" horiz-adv-x="1157" 
d="M410 -143l86 141q-205 31 -322 175t-117 355q0 242 149.5 391.5t407.5 149.5q182 0 307.5 -79.5t186.5 -223.5l-139 -57q-47 102 -137.5 159.5t-219.5 57.5q-176 0 -286.5 -109t-110.5 -289t110.5 -288.5t286.5 -108.5q129 0 219.5 57.5t137.5 159.5l139 -57
q-60 -142 -182 -220.5t-299 -82.5l-37 -60q57 0 107.5 -44t50.5 -117q0 -72 -49 -120q-48 -48 -124 -48q-106 0 -149 77l102 66q21 -27 50 -27q25 0 38 15.5t13 38.5q0 24 -16.5 39.5t-45.5 15.5q-37 0 -61 -23z" />
    <glyph glyph-name="egrave" unicode="&#xe8;" horiz-adv-x="1176" 
d="M1120 475h-903q12 -153 114.5 -248.5t266.5 -95.5q112 0 204.5 53t145.5 152l133 -78q-75 -135 -206 -203q-130 -67 -277 -67q-244 0 -392.5 149t-148.5 391t149.5 391.5t383.5 149.5q230 0 381 -145t151 -369v-40q0 -24 -2 -40zM221 612h737q-12 140 -110 230t-256 90
q-148 0 -251.5 -91t-119.5 -229zM727 1140l-344 209l86 131l326 -240z" />
    <glyph glyph-name="eacute" unicode="&#xe9;" horiz-adv-x="1176" 
d="M451 1140l-68 100l326 240l86 -131zM1120 475h-903q12 -153 114.5 -248.5t266.5 -95.5q112 0 204.5 53t145.5 152l133 -78q-75 -135 -206 -203q-130 -67 -277 -67q-244 0 -392.5 149t-148.5 391t149.5 391.5t383.5 149.5q230 0 381 -145t151 -369v-40q0 -24 -2 -40z
M221 612h737q-12 140 -110 230t-256 90q-148 0 -251.5 -91t-119.5 -229z" />
    <glyph glyph-name="ecircumflex" unicode="&#xea;" horiz-adv-x="1176" 
d="M358 1132l-82 84l313 270l310 -268l-80 -86l-230 186zM1120 475h-903q12 -153 114.5 -248.5t266.5 -95.5q112 0 204.5 53t145.5 152l133 -78q-75 -135 -206 -203q-130 -67 -277 -67q-244 0 -392.5 149t-148.5 391t149.5 391.5t383.5 149.5q230 0 381 -145t151 -369v-40
q0 -24 -2 -40zM221 612h737q-12 140 -110 230t-256 90q-148 0 -251.5 -91t-119.5 -229z" />
    <glyph glyph-name="edieresis" unicode="&#xeb;" horiz-adv-x="1176" 
d="M455 1210q-41 0 -66 26t-25 64q0 40 24.5 66t66.5 26q41 0 65.5 -26t24.5 -66q0 -38 -25 -64t-65 -26zM723 1210q-40 0 -65 26t-25 64q0 40 24.5 66t65.5 26q42 0 66 -26t24 -66q0 -38 -24.5 -64t-65.5 -26zM1120 475h-903q12 -153 114.5 -248.5t266.5 -95.5
q112 0 204.5 53t145.5 152l133 -78q-75 -135 -206 -203q-130 -67 -277 -67q-244 0 -392.5 149t-148.5 391t149.5 391.5t383.5 149.5q230 0 381 -145t151 -369v-40q0 -24 -2 -40zM221 612h737q-12 140 -110 230t-256 90q-148 0 -251.5 -91t-119.5 -229z" />
    <glyph glyph-name="igrave" unicode="&#xec;" horiz-adv-x="408" 
d="M156 0v1026h155v-1026h-155zM374 1140l-344 209l86 131l326 -240z" />
    <glyph glyph-name="iacute" unicode="&#xed;" horiz-adv-x="408" 
d="M98 1140l-68 100l326 240l86 -131zM156 0v1026h155v-1026h-155z" />
    <glyph glyph-name="icircumflex" unicode="&#xee;" horiz-adv-x="408" 
d="M5 1132l-82 84l313 270l310 -268l-80 -86l-230 186zM156 0v1026h155v-1026h-155z" />
    <glyph glyph-name="idieresis" unicode="&#xef;" horiz-adv-x="408" 
d="M102 1210q-41 0 -66 26t-25 64q0 40 24.5 66t66.5 26q41 0 65.5 -26t24.5 -66q0 -38 -25 -64t-65 -26zM370 1210q-40 0 -65 26t-25 64q0 40 24.5 66t65.5 26q42 0 66 -26t24 -66q0 -38 -24.5 -64t-65.5 -26zM156 0v1026h155v-1026h-155z" />
    <glyph glyph-name="eth" unicode="&#xf0;" horiz-adv-x="1233" 
d="M57 528q0 150 68 273t195 195.5t290 72.5q101 0 193 -47q-52 72 -195 213l-88 -100l-90 77l88 103q-77 68 -168 143l101 115l163 -143l84 96l93 -78l-89 -100q99 -93 175 -181t145 -192.5t106 -218.5t37 -228t-40.5 -213.5t-112 -171.5t-175 -113.5t-225.5 -41.5
q-121 0 -225 42t-176 114.5t-113 171.5t-41 212zM215 528q0 -173 110.5 -285t286.5 -112q175 0 285.5 112t110.5 285q0 170 -111 284t-285 114q-176 0 -286.5 -112.5t-110.5 -285.5z" />
    <glyph glyph-name="ntilde" unicode="&#xf1;" 
d="M109 0v1057h155v-156q51 64 161 116t232 52q227 0 336 -121t109 -334v-614h-156v543q0 145 -34.5 229.5t-102 119t-180.5 34.5q-167 0 -266 -111t-99 -276v-539h-155zM405 1205h-118q0 23 10 53.5t30.5 64t60.5 56.5t93 23q45 0 85 -17.5t63.5 -38t50.5 -38t49 -17.5
q33 0 48 21.5t22 67.5h120q-8 -105 -62 -153t-126 -48q-41 0 -77.5 17t-58 38t-50.5 38t-58 17q-33 0 -55 -23.5t-27 -60.5z" />
    <glyph glyph-name="ograve" unicode="&#xf2;" horiz-adv-x="1223" 
d="M57 528q0 237 153 389t402 152q248 0 400.5 -152t152.5 -389q0 -236 -152.5 -388t-400.5 -152q-249 0 -402 152t-153 388zM215 528q0 -173 110 -285t287 -112q176 0 286 112t110 285t-110 285.5t-286 112.5q-177 0 -287 -112.5t-110 -285.5zM749 1140l-344 209l86 131
l326 -240z" />
    <glyph glyph-name="oacute" unicode="&#xf3;" horiz-adv-x="1223" 
d="M473 1140l-68 100l326 240l86 -131zM57 528q0 237 153 389t402 152q248 0 400.5 -152t152.5 -389q0 -236 -152.5 -388t-400.5 -152q-249 0 -402 152t-153 388zM215 528q0 -173 110 -285t287 -112q176 0 286 112t110 285t-110 285.5t-286 112.5q-177 0 -287 -112.5
t-110 -285.5z" />
    <glyph glyph-name="ocircumflex" unicode="&#xf4;" horiz-adv-x="1223" 
d="M381 1132l-82 84l313 270l310 -268l-80 -86l-230 186zM57 528q0 237 153 389t402 152q248 0 400.5 -152t152.5 -389q0 -236 -152.5 -388t-400.5 -152q-249 0 -402 152t-153 388zM215 528q0 -173 110 -285t287 -112q176 0 286 112t110 285t-110 285.5t-286 112.5
q-177 0 -287 -112.5t-110 -285.5z" />
    <glyph glyph-name="otilde" unicode="&#xf5;" horiz-adv-x="1223" 
d="M57 528q0 237 153 389t402 152q248 0 400.5 -152t152.5 -389q0 -236 -152.5 -388t-400.5 -152q-249 0 -402 152t-153 388zM215 528q0 -173 110 -285t287 -112q176 0 286 112t110 285t-110 285.5t-286 112.5q-177 0 -287 -112.5t-110 -285.5zM415 1205h-118q0 23 10 53.5
t30.5 64t60.5 56.5t93 23q45 0 85 -17.5t63.5 -38t50.5 -38t49 -17.5q33 0 48 21.5t22 67.5h120q-8 -105 -62 -153t-126 -48q-41 0 -77.5 17t-58 38t-50.5 38t-58 17q-33 0 -55 -23.5t-27 -60.5z" />
    <glyph glyph-name="odieresis" unicode="&#xf6;" horiz-adv-x="1223" 
d="M478 1210q-41 0 -66 26t-25 64q0 40 24.5 66t66.5 26q41 0 65.5 -26t24.5 -66q0 -38 -25 -64t-65 -26zM746 1210q-40 0 -65 26t-25 64q0 40 24.5 66t65.5 26q42 0 66 -26t24 -66q0 -38 -24.5 -64t-65.5 -26zM57 528q0 237 153 389t402 152q248 0 400.5 -152t152.5 -389
q0 -236 -152.5 -388t-400.5 -152q-249 0 -402 152t-153 388zM215 528q0 -173 110 -285t287 -112q176 0 286 112t110 285t-110 285.5t-286 112.5q-177 0 -287 -112.5t-110 -285.5z" />
    <glyph glyph-name="divide" unicode="&#xf7;" horiz-adv-x="1378" 
d="M596 918q-41 35 -41 92q0 59 41 94q38 39 92 39q56 0 94 -39q39 -39 39 -94q0 -54 -39 -92q-38 -39 -94 -39q-54 0 -92 39zM61 571v119h1258v-119h-1258zM555 246q0 44 41 92q39 39 92 39q57 0 96 -39q39 -44 39 -92q0 -56 -39 -96q-40 -39 -96 -39q-50 0 -92 39
q-41 46 -41 96z" />
    <glyph glyph-name="oslash" unicode="&#xf8;" horiz-adv-x="1247" 
d="M57 12l142 154q-131 148 -131 362q0 113 40.5 213t112.5 172t176 114t226 42q178 0 315 -98l111 110l141 -34l-146 -156q132 -149 132 -363q0 -231 -155 -385.5t-400 -154.5q-182 0 -316 96l-106 -107zM303 289l535 563q-94 74 -217 74q-175 0 -285.5 -112.5
t-110.5 -285.5q0 -139 78 -239zM940 766l-537 -563q91 -72 213 -72q181 0 291.5 111.5t110.5 285.5q0 138 -78 238z" />
    <glyph glyph-name="ugrave" unicode="&#xf9;" 
d="M1077 1057v-1057h-155v156q-51 -65 -161 -116.5t-233 -51.5q-227 0 -335.5 120.5t-108.5 333.5v615h156v-543q0 -215 73 -299t244 -84q166 0 265.5 111t99.5 276v539h155zM723 1140l-344 209l86 131l326 -240z" />
    <glyph glyph-name="uacute" unicode="&#xfa;" 
d="M447 1140l-68 100l326 240l86 -131zM1077 1057v-1057h-155v156q-51 -65 -161 -116.5t-233 -51.5q-227 0 -335.5 120.5t-108.5 333.5v615h156v-543q0 -215 73 -299t244 -84q166 0 265.5 111t99.5 276v539h155z" />
    <glyph glyph-name="ucircumflex" unicode="&#xfb;" 
d="M354 1132l-82 84l313 270l310 -268l-80 -86l-230 186zM1077 1057v-1057h-155v156q-51 -65 -161 -116.5t-233 -51.5q-227 0 -335.5 120.5t-108.5 333.5v615h156v-543q0 -215 73 -299t244 -84q166 0 265.5 111t99.5 276v539h155z" />
    <glyph glyph-name="udieresis" unicode="&#xfc;" 
d="M451 1210q-41 0 -66 26t-25 64q0 40 24.5 66t66.5 26q41 0 65.5 -26t24.5 -66q0 -38 -25 -64t-65 -26zM719 1210q-40 0 -65 26t-25 64q0 40 24.5 66t65.5 26q42 0 66 -26t24 -66q0 -38 -24.5 -64t-65.5 -26zM1077 1057v-1057h-155v156q-51 -65 -161 -116.5t-233 -51.5
q-227 0 -335.5 120.5t-108.5 333.5v615h156v-543q0 -215 73 -299t244 -84q166 0 265.5 111t99.5 276v539h155z" />
    <glyph glyph-name="yacute" unicode="&#xfd;" horiz-adv-x="1051" 
d="M279 -348l-29 151q53 21 88 51.5t55 84.5l51 124l-424 994h168l340 -805l342 805h170l-508 -1184q-41 -95 -97 -144q-56 -52 -156 -77zM394 1140l-68 100l326 240l86 -131z" />
    <glyph glyph-name="thorn" unicode="&#xfe;" horiz-adv-x="1268" 
d="M274 203v-580h-157v1811h157v-578q61 101 163.5 157t234.5 56q158 0 281.5 -71.5t190 -194.5t66.5 -275q0 -113 -39.5 -212t-108.5 -171.5t-170 -114.5t-218 -42q-133 0 -236 56t-164 159zM274 535v-15q0 -103 48.5 -192t136.5 -143t196 -54q174 0 286 112.5t112 284.5
t-112.5 285t-285.5 113q-163 0 -272 -116t-109 -275z" />
    <glyph glyph-name="ydieresis" unicode="&#xff;" horiz-adv-x="1051" 
d="M279 -348l-29 151q53 21 88 51.5t55 84.5l51 124l-424 994h168l340 -805l342 805h170l-508 -1184q-41 -95 -97 -144q-56 -52 -156 -77zM398 1210q-41 0 -66 26t-25 64q0 40 24.5 66t66.5 26q41 0 65.5 -26t24.5 -66q0 -38 -25 -64t-65 -26zM666 1210q-40 0 -65 26t-25 64
q0 40 24.5 66t65.5 26q42 0 66 -26t24 -66q0 -38 -24.5 -64t-65.5 -26z" />
    <glyph glyph-name="Amacron" unicode="&#x100;" horiz-adv-x="1315" 
d="M395 479h525l-258 621zM29 0l633 1466l624 -1466h-170l-135 334h-643l-139 -334h-170zM424 1600v133h482v-133h-482z" />
    <glyph glyph-name="amacron" unicode="&#x101;" horiz-adv-x="1262" 
d="M215 528q0 -178 109.5 -287.5t289.5 -109.5q170 0 274.5 113.5t104.5 283.5t-105 284t-278 114q-180 0 -287.5 -111t-107.5 -287zM57 528q0 240 146.5 390.5t388.5 150.5q118 0 223 -45t178 -123v156h158v-1057h-158v152q-78 -76 -170 -120q-93 -44 -227 -44
q-244 0 -391.5 150.5t-147.5 389.5zM362 1228v133h482v-133h-482z" />
    <glyph glyph-name="Abreve" unicode="&#x102;" horiz-adv-x="1315" 
d="M395 479h525l-258 621zM29 0l633 1466l624 -1466h-170l-135 334h-643l-139 -334h-170zM663 1545q-66 0 -126 22.5t-104 75.5t-44 127h119q3 -57 49 -83t106 -26q37 0 69 9t58.5 35t28.5 65h119q-2 -74 -46 -127t-104 -75.5t-125 -22.5z" />
    <glyph glyph-name="abreve" unicode="&#x103;" horiz-adv-x="1262" 
d="M215 528q0 -178 109.5 -287.5t289.5 -109.5q170 0 274.5 113.5t104.5 283.5t-105 284t-278 114q-180 0 -287.5 -111t-107.5 -287zM57 528q0 240 146.5 390.5t388.5 150.5q118 0 223 -45t178 -123v156h158v-1057h-158v152q-78 -76 -170 -120q-93 -44 -227 -44
q-244 0 -391.5 150.5t-147.5 389.5zM604 1173q-66 0 -126 22.5t-104 75.5t-44 127h119q3 -57 49 -83t106 -26q37 0 69 9t58.5 35t28.5 65h119q-2 -74 -46 -127t-104 -75.5t-125 -22.5z" />
    <glyph glyph-name="Aogonek" unicode="&#x104;" horiz-adv-x="1372" 
d="M29 14l626 1463l623 -1477q-41 -20 -92 -93.5t-51 -101.5q-11 -26 3.5 -48.5t43.5 -22.5q18 0 30 10t25 43l106 -53q-17 -61 -62 -93t-101 -32q-77 0 -129 50q-50 50 -50 124q0 54 32 115q30 55 73 108l-131 328h-643l-144 -340zM383 459h537l-265 645z" />
    <glyph glyph-name="aogonek" unicode="&#x105;" horiz-adv-x="1333" 
d="M57 528q0 240 146.5 390.5t388.5 150.5q118 0 223 -45t178 -123v156h158v-1057q-80 -80 -116 -130q-34 -47 -34 -87q0 -22 15 -35.5t41 -13.5q17 0 28.5 11t22.5 44l115 -45q-18 -69 -62 -102t-104 -33q-85 0 -134 48t-49 118q0 55 24.5 104t94.5 148v125
q-78 -76 -170 -120q-93 -44 -227 -44q-244 0 -391.5 150.5t-147.5 389.5zM215 528q0 -178 109.5 -287.5t289.5 -109.5q170 0 274.5 113.5t104.5 283.5t-105 284t-278 114q-180 0 -287.5 -111t-107.5 -287z" />
    <glyph glyph-name="Cacute" unicode="&#x106;" horiz-adv-x="1511" 
d="M641 1512l-68 100l326 240l86 -131zM66 717q0 155 55.5 291t152.5 233t234.5 153t296.5 56q215 0 384 -99q169 -97 261 -284l-143 -59q-73 138 -202 217q-131 80 -304 80q-254 0 -415 -166.5t-161 -421.5q0 -169 72.5 -303t204 -209.5t299.5 -75.5q175 0 305 79
q131 80 201 218l143 -66q-92 -180 -260 -278q-169 -98 -385 -98q-212 0 -381 95t-263.5 262.5t-94.5 375.5z" />
    <glyph glyph-name="cacute" unicode="&#x107;" horiz-adv-x="1157" 
d="M455 1140l-68 100l326 240l86 -131zM57 528q0 242 149.5 391.5t407.5 149.5q182 0 307.5 -79.5t186.5 -223.5l-139 -57q-47 102 -137.5 159.5t-219.5 57.5q-176 0 -286.5 -109t-110.5 -289t110.5 -288.5t286.5 -108.5q129 0 219.5 57.5t137.5 159.5l139 -57
q-61 -144 -186 -223.5t-308 -79.5q-258 0 -407.5 149.5t-149.5 390.5z" />
    <glyph glyph-name="Ccircumflex" unicode="&#x108;" horiz-adv-x="1511" 
d="M541 1504l-82 84l313 270l310 -268l-80 -86l-230 186zM66 717q0 155 55.5 291t152.5 233t234.5 153t296.5 56q215 0 384 -99q169 -97 261 -284l-143 -59q-73 138 -202 217q-131 80 -304 80q-254 0 -415 -166.5t-161 -421.5q0 -169 72.5 -303t204 -209.5t299.5 -75.5
q175 0 305 79q131 80 201 218l143 -66q-92 -180 -260 -278q-169 -98 -385 -98q-212 0 -381 95t-263.5 262.5t-94.5 375.5z" />
    <glyph glyph-name="ccircumflex" unicode="&#x109;" horiz-adv-x="1157" 
d="M363 1132l-82 84l313 270l310 -268l-80 -86l-230 186zM57 528q0 242 149.5 391.5t407.5 149.5q182 0 307.5 -79.5t186.5 -223.5l-139 -57q-47 102 -137.5 159.5t-219.5 57.5q-176 0 -286.5 -109t-110.5 -289t110.5 -288.5t286.5 -108.5q129 0 219.5 57.5t137.5 159.5
l139 -57q-61 -144 -186 -223.5t-308 -79.5q-258 0 -407.5 149.5t-149.5 390.5z" />
    <glyph glyph-name="Cdotaccent" unicode="&#x10a;" horiz-adv-x="1511" 
d="M66 717q0 155 55.5 291t152.5 233t234.5 153t296.5 56q215 0 384 -99q169 -97 261 -284l-143 -59q-73 138 -202 217q-131 80 -304 80q-254 0 -415 -166.5t-161 -421.5q0 -169 72.5 -303t204 -209.5t299.5 -75.5q175 0 305 79q131 80 201 218l143 -66q-92 -180 -260 -278
q-169 -98 -385 -98q-212 0 -381 95t-263.5 262.5t-94.5 375.5zM772 1590q-40 0 -60 21.5t-20 58.5q0 36 20.5 59t59.5 23q40 0 61 -23t21 -59q0 -37 -21 -58.5t-61 -21.5z" />
    <glyph glyph-name="cdotaccent" unicode="&#x10b;" horiz-adv-x="1157" 
d="M57 528q0 242 149.5 391.5t407.5 149.5q182 0 307.5 -79.5t186.5 -223.5l-139 -57q-47 102 -137.5 159.5t-219.5 57.5q-176 0 -286.5 -109t-110.5 -289t110.5 -288.5t286.5 -108.5q129 0 219.5 57.5t137.5 159.5l139 -57q-61 -144 -186 -223.5t-308 -79.5
q-258 0 -407.5 149.5t-149.5 390.5zM594 1218q-40 0 -60 21.5t-20 58.5q0 36 20.5 59t59.5 23q40 0 61 -23t21 -59q0 -37 -21 -58.5t-61 -21.5z" />
    <glyph glyph-name="Ccaron" unicode="&#x10c;" horiz-adv-x="1511" 
d="M772 1512l-313 268l82 86l231 -188l230 188l80 -86zM66 717q0 155 55.5 291t152.5 233t234.5 153t296.5 56q215 0 384 -99q169 -97 261 -284l-143 -59q-73 138 -202 217q-131 80 -304 80q-254 0 -415 -166.5t-161 -421.5q0 -169 72.5 -303t204 -209.5t299.5 -75.5
q175 0 305 79q131 80 201 218l143 -66q-92 -180 -260 -278q-169 -98 -385 -98q-212 0 -381 95t-263.5 262.5t-94.5 375.5z" />
    <glyph glyph-name="ccaron" unicode="&#x10d;" horiz-adv-x="1157" 
d="M594 1140l-313 268l82 86l231 -188l230 188l80 -86zM57 528q0 242 149.5 391.5t407.5 149.5q182 0 307.5 -79.5t186.5 -223.5l-139 -57q-47 102 -137.5 159.5t-219.5 57.5q-176 0 -286.5 -109t-110.5 -289t110.5 -288.5t286.5 -108.5q129 0 219.5 57.5t137.5 159.5
l139 -57q-61 -144 -186 -223.5t-308 -79.5q-258 0 -407.5 149.5t-149.5 390.5z" />
    <glyph glyph-name="Dcaron" unicode="&#x10e;" horiz-adv-x="1337" 
d="M637 1512l-313 268l82 86l231 -188l230 188l80 -86zM129 0v1434h401q364 0 553 -180t189 -529q0 -357 -196 -541q-194 -184 -546 -184h-401zM285 143h245q281 0 432 148q152 149 152 430q0 276 -148.5 422.5t-435.5 146.5h-245v-1147z" />
    <glyph glyph-name="dcaron" unicode="&#x10f;" horiz-adv-x="1626" 
d="M215 528q0 -178 109.5 -287.5t289.5 -109.5q170 0 274.5 113.5t104.5 283.5t-105 284t-278 114q-180 0 -287.5 -111t-107.5 -287zM57 528q0 240 146.5 390.5t388.5 150.5q118 0 223 -45t178 -123v533h158v-1434h-158v152q-78 -76 -170 -120q-93 -44 -227 -44
q-244 0 -391.5 150.5t-147.5 389.5zM1405 1148q15 41 22 77q-38 4 -63 31q-29 32 -29 76q0 46 30.5 76t82.5 30t81 -33.5t29 -88.5q0 -112 -48.5 -206.5t-137.5 -160.5l-55 57q61 68 88 142z" />
    <glyph glyph-name="Dcroat" unicode="&#x110;" horiz-adv-x="1501" 
d="M297 0v643h-256v156h256v635h401q364 0 553 -180t189 -529q0 -357 -196 -541q-194 -184 -546 -184h-401zM453 143h245q281 0 432 148q152 149 152 430q0 276 -148.5 422.5t-435.5 146.5h-245v-491h438v-156h-438v-500z" />
    <glyph glyph-name="dcroat" unicode="&#x111;" horiz-adv-x="1346" 
d="M57 528q0 240 146.5 390.5t388.5 150.5q118 0 223 -45t178 -123v236h-174v129h174v168h158v-168h174v-129h-174v-1137h-158v152q-78 -76 -170 -120q-93 -44 -227 -44q-244 0 -391.5 150.5t-147.5 389.5zM215 528q0 -178 109.5 -287.5t289.5 -109.5q170 0 274.5 113.5
t104.5 283.5t-105 284t-278 114q-180 0 -287.5 -111t-107.5 -287z" />
    <glyph glyph-name="Emacron" unicode="&#x112;" horiz-adv-x="1110" 
d="M129 0v1434h893v-146h-737v-493h690v-146h-690v-504h768v-145h-924zM350 1600v133h482v-133h-482z" />
    <glyph glyph-name="emacron" unicode="&#x113;" horiz-adv-x="1176" 
d="M1120 475h-903q12 -153 114.5 -248.5t266.5 -95.5q112 0 204.5 53t145.5 152l133 -78q-75 -135 -206 -203q-130 -67 -277 -67q-244 0 -392.5 149t-148.5 391t149.5 391.5t383.5 149.5q230 0 381 -145t151 -369v-40q0 -24 -2 -40zM221 612h737q-12 140 -110 230t-256 90
q-148 0 -251.5 -91t-119.5 -229zM348 1228v133h482v-133h-482z" />
    <glyph glyph-name="Ebreve" unicode="&#x114;" horiz-adv-x="1110" 
d="M129 0v1434h893v-146h-737v-493h690v-146h-690v-504h768v-145h-924zM591 1545q-66 0 -126 22.5t-104 75.5t-44 127h119q3 -57 49 -83t106 -26q37 0 69 9t58.5 35t28.5 65h119q-2 -74 -46 -127t-104 -75.5t-125 -22.5z" />
    <glyph glyph-name="ebreve" unicode="&#x115;" horiz-adv-x="1176" 
d="M1120 475h-903q12 -153 114.5 -248.5t266.5 -95.5q112 0 204.5 53t145.5 152l133 -78q-75 -135 -206 -203q-130 -67 -277 -67q-244 0 -392.5 149t-148.5 391t149.5 391.5t383.5 149.5q230 0 381 -145t151 -369v-40q0 -24 -2 -40zM221 612h737q-12 140 -110 230t-256 90
q-148 0 -251.5 -91t-119.5 -229zM589 1173q-66 0 -126 22.5t-104 75.5t-44 127h119q3 -57 49 -83t106 -26q37 0 69 9t58.5 35t28.5 65h119q-2 -74 -46 -127t-104 -75.5t-125 -22.5z" />
    <glyph glyph-name="Edotaccent" unicode="&#x116;" horiz-adv-x="1110" 
d="M129 0v1434h893v-146h-737v-493h690v-146h-690v-504h768v-145h-924zM564 1590q-40 0 -60 21.5t-20 58.5q0 36 20.5 59t59.5 23q40 0 61 -23t21 -59q0 -37 -21 -58.5t-61 -21.5z" />
    <glyph glyph-name="edotaccent" unicode="&#x117;" horiz-adv-x="1176" 
d="M1120 475h-903q12 -153 114.5 -248.5t266.5 -95.5q112 0 204.5 53t145.5 152l133 -78q-75 -135 -206 -203q-130 -67 -277 -67q-244 0 -392.5 149t-148.5 391t149.5 391.5t383.5 149.5q230 0 381 -145t151 -369v-40q0 -24 -2 -40zM221 612h737q-12 140 -110 230t-256 90
q-148 0 -251.5 -91t-119.5 -229zM590 1218q-40 0 -60 21.5t-20 58.5q0 36 20.5 59t59.5 23q40 0 61 -23t21 -59q0 -37 -21 -58.5t-61 -21.5z" />
    <glyph glyph-name="Eogonek" unicode="&#x118;" horiz-adv-x="1110" 
d="M129 0v1434h893v-146h-737v-493h690v-146h-690v-504h768v-145h-181q-42 0 -82.5 -25.5t-66 -60t-41.5 -65t-16 -44.5q-12 -27 1.5 -49t45.5 -22q18 0 30 10t27 43l104 -53q-17 -61 -62 -93t-101 -32q-77 0 -129 50q-50 50 -50 124q0 46 21 90t78 127h-502z" />
    <glyph glyph-name="eogonek" unicode="&#x119;" horiz-adv-x="1174" 
d="M1120 475h-903q12 -152 114.5 -248t264.5 -96q114 0 206.5 53t145.5 152l133 -78q-85 -148 -237 -219q-38 -23 -107 -109.5t-69 -138.5q0 -22 12.5 -39.5t38.5 -17.5q17 0 28.5 10t26.5 43l107 -53q-20 -62 -64.5 -93.5t-101.5 -31.5q-77 0 -127 51q-49 50 -49 119
q0 42 22 96q6 19 28 56q19 30 40 59q-3 0 -17.5 -1t-31.5 -1q-226 0 -374.5 151t-148.5 391t149.5 389.5t383.5 149.5q232 0 382 -144.5t150 -379.5v-31q0 -23 -2 -39zM221 612h737q-12 139 -110 229.5t-252 90.5q-152 0 -255.5 -91t-119.5 -229z" />
    <glyph glyph-name="Ecaron" unicode="&#x11a;" horiz-adv-x="1110" 
d="M591 1512l-313 268l82 86l231 -188l230 188l80 -86zM129 0v1434h893v-146h-737v-493h690v-146h-690v-504h768v-145h-924z" />
    <glyph glyph-name="ecaron" unicode="&#x11b;" horiz-adv-x="1176" 
d="M589 1140l-313 268l82 86l231 -188l230 188l80 -86zM1120 475h-903q12 -153 114.5 -248.5t266.5 -95.5q112 0 204.5 53t145.5 152l133 -78q-75 -135 -206 -203q-130 -67 -277 -67q-244 0 -392.5 149t-148.5 391t149.5 391.5t383.5 149.5q230 0 381 -145t151 -369v-40
q0 -24 -2 -40zM221 612h737q-12 140 -110 230t-256 90q-148 0 -251.5 -91t-119.5 -229z" />
    <glyph glyph-name="Gcircumflex" unicode="&#x11c;" horiz-adv-x="1544" 
d="M541 1504l-82 84l313 270l310 -268l-80 -86l-230 186zM66 715q0 157 55.5 293.5t152.5 233.5t233.5 152.5t293.5 55.5q224 0 391 -103q168 -102 260 -278l-145 -59q-78 139 -207 217t-299 78q-125 0 -232.5 -44.5t-182 -122.5t-117 -187t-42.5 -234q0 -257 160.5 -423.5
t413.5 -166.5q169 0 306.5 81t199.5 214l1 32q1 31 2 72t1 66v35h-549v145h706v-373q-103 -207 -271 -311t-388 -104q-214 0 -384 94.5t-264.5 261.5t-94.5 375z" />
    <glyph glyph-name="gcircumflex" unicode="&#x11d;" horiz-adv-x="1255" 
d="M379 1132l-82 84l313 270l310 -268l-80 -86l-230 186zM995 104v50q-77 -79 -171 -122q-94 -44 -228 -44q-244 0 -391.5 150.5t-147.5 389.5q0 240 146.5 390.5t388.5 150.5q118 0 223 -45t178 -123v156h158v-959q0 -222 -123 -352q-123 -131 -375 -131q-140 0 -293 51
l37 129q50 -16 123.5 -27.5t122.5 -11.5q80 0 141.5 17t110 55.5t74.5 108t26 167.5zM215 528q0 -176 110 -287.5t291 -111.5q170 0 274.5 113.5t104.5 285.5q0 173 -105 287.5t-276 114.5q-182 0 -290.5 -113t-108.5 -289z" />
    <glyph glyph-name="Gbreve" unicode="&#x11e;" horiz-adv-x="1544" 
d="M66 715q0 157 55.5 293.5t152.5 233.5t233.5 152.5t293.5 55.5q224 0 391 -103q168 -102 260 -278l-145 -59q-78 139 -207 217t-299 78q-125 0 -232.5 -44.5t-182 -122.5t-117 -187t-42.5 -234q0 -257 160.5 -423.5t413.5 -166.5q169 0 306.5 81t199.5 214l1 32
q1 31 2 72t1 66v35h-549v145h706v-373q-103 -207 -271 -311t-388 -104q-214 0 -384 94.5t-264.5 261.5t-94.5 375zM772 1545q-66 0 -126 22.5t-104 75.5t-44 127h119q3 -57 49 -83t106 -26q37 0 69 9t58.5 35t28.5 65h119q-2 -74 -46 -127t-104 -75.5t-125 -22.5z" />
    <glyph glyph-name="gbreve" unicode="&#x11f;" horiz-adv-x="1255" 
d="M995 104v50q-77 -79 -171 -122q-94 -44 -228 -44q-244 0 -391.5 150.5t-147.5 389.5q0 240 146.5 390.5t388.5 150.5q118 0 223 -45t178 -123v156h158v-959q0 -222 -123 -352q-123 -131 -375 -131q-140 0 -293 51l37 129q50 -16 123.5 -27.5t122.5 -11.5q80 0 141.5 17
t110 55.5t74.5 108t26 167.5zM215 528q0 -176 110 -287.5t291 -111.5q170 0 274.5 113.5t104.5 285.5q0 173 -105 287.5t-276 114.5q-182 0 -290.5 -113t-108.5 -289zM608 1173q-66 0 -126 22.5t-104 75.5t-44 127h119q3 -57 49 -83t106 -26q37 0 69 9t58.5 35t28.5 65h119
q-2 -74 -46 -127t-104 -75.5t-125 -22.5z" />
    <glyph glyph-name="Gdotaccent" unicode="&#x120;" horiz-adv-x="1544" 
d="M66 715q0 157 55.5 293.5t152.5 233.5t233.5 152.5t293.5 55.5q224 0 391 -103q168 -102 260 -278l-145 -59q-78 139 -207 217t-299 78q-125 0 -232.5 -44.5t-182 -122.5t-117 -187t-42.5 -234q0 -257 160.5 -423.5t413.5 -166.5q169 0 306.5 81t199.5 214l1 32
q1 31 2 72t1 66v35h-549v145h706v-373q-103 -207 -271 -311t-388 -104q-214 0 -384 94.5t-264.5 261.5t-94.5 375zM772 1590q-40 0 -60 21.5t-20 58.5q0 36 20.5 59t59.5 23q40 0 61 -23t21 -59q0 -37 -21 -58.5t-61 -21.5z" />
    <glyph glyph-name="gdotaccent" unicode="&#x121;" horiz-adv-x="1255" 
d="M995 104v50q-77 -79 -171 -122q-94 -44 -228 -44q-244 0 -391.5 150.5t-147.5 389.5q0 240 146.5 390.5t388.5 150.5q118 0 223 -45t178 -123v156h158v-959q0 -222 -123 -352q-123 -131 -375 -131q-140 0 -293 51l37 129q50 -16 123.5 -27.5t122.5 -11.5q80 0 141.5 17
t110 55.5t74.5 108t26 167.5zM215 528q0 -176 110 -287.5t291 -111.5q170 0 274.5 113.5t104.5 285.5q0 173 -105 287.5t-276 114.5q-182 0 -290.5 -113t-108.5 -289zM609 1218q-40 0 -60 21.5t-20 58.5q0 36 20.5 59t59.5 23q40 0 61 -23t21 -59q0 -37 -21 -58.5t-61 -21.5
z" />
    <glyph glyph-name="Gcommaaccent" unicode="&#x122;" horiz-adv-x="1544" 
d="M754 -359q15 41 23 78q-38 4 -64 30q-29 32 -29 76q0 46 30.5 76.5t82.5 30.5t81.5 -34t29.5 -89q0 -112 -49 -206t-138 -161l-55 58q60 66 88 141zM66 715q0 157 55.5 293.5t152.5 233.5t233.5 152.5t293.5 55.5q224 0 391 -103q168 -102 260 -278l-145 -59
q-78 139 -207 217t-299 78q-125 0 -232.5 -44.5t-182 -122.5t-117 -187t-42.5 -234q0 -257 160.5 -423.5t413.5 -166.5q169 0 306.5 81t199.5 214l1 32q1 31 2 72t1 66v35h-549v145h706v-373q-103 -207 -271 -311t-388 -104q-214 0 -384 94.5t-264.5 261.5t-94.5 375z" />
    <glyph glyph-name="gcommaaccent" unicode="&#x123;" horiz-adv-x="1255" 
d="M995 104v50q-77 -79 -171 -122q-94 -44 -228 -44q-244 0 -391.5 150.5t-147.5 389.5q0 240 146.5 390.5t388.5 150.5q118 0 223 -45t178 -123v156h158v-959q0 -222 -123 -352q-123 -131 -375 -131q-140 0 -293 51l37 129q50 -16 123.5 -27.5t122.5 -11.5q80 0 141.5 17
t110 55.5t74.5 108t26 167.5zM215 528q0 -176 110 -287.5t291 -111.5q170 0 274.5 113.5t104.5 285.5q0 173 -105 287.5t-276 114.5q-182 0 -290.5 -113t-108.5 -289zM647 -730q15 41 23 78q-38 4 -64 30q-29 32 -29 76q0 46 30.5 76.5t82.5 30.5t81.5 -34t29.5 -89
q0 -112 -49 -206t-138 -161l-55 58q60 66 88 141z" />
    <glyph glyph-name="Hcircumflex" unicode="&#x124;" horiz-adv-x="1407" 
d="M492 1504l-82 84l313 270l310 -268l-80 -86l-230 186zM145 0v1434h156v-639h837v639h156v-1434h-156v649h-837v-649h-156z" />
    <glyph glyph-name="hcircumflex" unicode="&#x125;" horiz-adv-x="1430" 
d="M199 1504l-82 84l313 270l310 -268l-80 -86l-230 186zM353 0v1434h153v-533q51 65 161 116.5t233 51.5q227 0 335.5 -121t108.5 -334v-614h-156v543q0 214 -73.5 298.5t-243.5 84.5q-167 0 -266 -111t-99 -276v-539h-153z" />
    <glyph glyph-name="Hbar" unicode="&#x126;" horiz-adv-x="1432" 
d="M141 0v1016h-104v145h104v273h156v-273h838v273h155v-273h107v-145h-107v-1016h-155v649h-838v-649h-156zM297 795h838v221h-838v-221z" />
    <glyph glyph-name="hbar" unicode="&#x127;" horiz-adv-x="1247" 
d="M170 0v1137h-174v129h174v168h156v-168h176v-129h-176v-299q107 231 393 231q116 0 202.5 -32.5t138.5 -93.5t77.5 -143t25.5 -186v-614h-155v543q0 213 -75.5 298t-250.5 85q-162 0 -259 -109t-97 -274v-543h-156z" />
    <glyph glyph-name="Itilde" unicode="&#x128;" horiz-adv-x="438" 
d="M157 0v1434h156v-1434h-156zM40 1577h-118q0 23 10 53.5t30.5 64t60.5 56.5t93 23q45 0 85 -17.5t63.5 -38t50.5 -38t49 -17.5q33 0 48 21.5t22 67.5h120q-8 -105 -62 -153t-126 -48q-41 0 -77.5 17t-58 38t-50.5 38t-58 17q-33 0 -55 -23.5t-27 -60.5z" />
    <glyph glyph-name="itilde" unicode="&#x129;" horiz-adv-x="408" 
d="M156 0v1026h155v-1026h-155zM37 1205h-118q0 23 10 53.5t30.5 64t60.5 56.5t93 23q45 0 85 -17.5t63.5 -38t50.5 -38t49 -17.5q33 0 48 21.5t22 67.5h120q-8 -105 -62 -153t-126 -48q-41 0 -77.5 17t-58 38t-50.5 38t-58 17q-33 0 -55 -23.5t-27 -60.5z" />
    <glyph glyph-name="Imacron" unicode="&#x12a;" horiz-adv-x="438" 
d="M157 0v1434h156v-1434h-156zM-5 1600v133h482v-133h-482z" />
    <glyph glyph-name="imacron" unicode="&#x12b;" horiz-adv-x="408" 
d="M156 0v1026h155v-1026h-155zM-5 1228v133h482v-133h-482z" />
    <glyph glyph-name="Ibreve" unicode="&#x12c;" horiz-adv-x="438" 
d="M157 0v1434h156v-1434h-156zM236 1545q-66 0 -126 22.5t-104 75.5t-44 127h119q3 -57 49 -83t106 -26q37 0 69 9t58.5 35t28.5 65h119q-2 -74 -46 -127t-104 -75.5t-125 -22.5z" />
    <glyph glyph-name="ibreve" unicode="&#x12d;" horiz-adv-x="381" 
d="M129 0v1026h155v-1026h-155zM207 1223q-66 0 -126 22.5t-104 75.5t-44 127h119q3 -57 49 -83t106 -26q37 0 69 9t58.5 35t28.5 65h119q-2 -74 -46 -127t-104 -75.5t-125 -22.5z" />
    <glyph glyph-name="Iogonek" unicode="&#x12e;" horiz-adv-x="438" 
d="M201 -391q-75 0 -130 47q-53 47 -53 123q0 42 45 132t78 120v1403h156v-1434q-41 -20 -93.5 -94t-51.5 -101q-12 -27 1.5 -49t47.5 -22q17 0 28.5 11t22.5 44l115 -45q-18 -69 -62 -102t-104 -33z" />
    <glyph glyph-name="iogonek" unicode="&#x12f;" horiz-adv-x="408" 
d="M201 -391q-75 0 -130 47q-53 47 -53 125q0 98 123 250v995h156v-1026q-43 -19 -94 -93.5t-51 -101.5q-12 -27 1.5 -49t47.5 -22q17 0 28 11t25 44l113 -45q-18 -69 -62 -102t-104 -33zM219 1231q-46 0 -71 26.5t-25 69.5t25 69.5t71 26.5t71 -26.5t25 -69.5t-25 -69.5
t-71 -26.5z" />
    <glyph glyph-name="Idotaccent" unicode="&#x130;" horiz-adv-x="438" 
d="M157 0v1434h156v-1434h-156zM237 1590q-40 0 -60 21.5t-20 58.5q0 36 20.5 59t59.5 23q40 0 61 -23t21 -59q0 -37 -21 -58.5t-61 -21.5z" />
    <glyph glyph-name="dotlessi" unicode="&#x131;" horiz-adv-x="381" 
d="M113 0v1026h155v-1026h-155z" />
    <glyph glyph-name="IJ" unicode="&#x132;" horiz-adv-x="741" 
d="M133 0v1434h156v-1434h-156zM213 -264l4 137q41 -14 66 -18.5t59 0.5q58 6 93.5 48t35.5 120v1411h156v-1418q0 -117 -51.5 -191.5t-153.5 -92.5q-83 -18 -209 4z" />
    <glyph glyph-name="ij" unicode="&#x133;" horiz-adv-x="772" 
d="M150 0v1026h155v-1026h-155zM227 1231q-46 0 -71 26.5t-25 69.5t25 69.5t71 26.5t71.5 -26.5t25.5 -69.5t-25.5 -69.5t-71.5 -26.5zM549 1231q-46 0 -70 26.5t-24 69.5t24 69.5t70 26.5t71 -26.5t25 -69.5t-25 -69.5t-71 -26.5zM479 -383l-88 131q39 40 59 77
q21 37 21 105v1096h156v-1126q0 -94 -34.5 -159.5t-113.5 -123.5z" />
    <glyph glyph-name="Jcircumflex" unicode="&#x134;" horiz-adv-x="432" 
d="M19 1504l-82 84l313 270l310 -268l-80 -86l-230 186zM172 23v1411h155v-1418q0 -117 -51 -191.5t-153 -92.5q-25 -8 -71.5 -11t-76.5 5l-8 143q38 -9 76 -4q54 6 92 41q37 34 37 117z" />
    <glyph glyph-name="jcircumflex" unicode="&#x135;" horiz-adv-x="424" 
d="M157 -70v1096h156v-1126q0 -95 -35 -160.5t-115 -122.5l-86 131q39 40 59 77q21 37 21 105zM7 1132l-82 84l313 270l310 -268l-80 -86l-230 186z" />
    <glyph glyph-name="Kcommaaccent" unicode="&#x136;" horiz-adv-x="1229" 
d="M600 -217q15 41 23 78q-38 4 -64 30q-29 32 -29 76q0 46 30.5 76.5t82.5 30.5t81.5 -34t29.5 -89q0 -112 -49 -206t-138 -161l-55 58q60 66 88 141zM129 0v1434h156v-686l790 686h199l-612 -553l593 -881h-190l-520 774l-260 -225v-549h-156z" />
    <glyph glyph-name="kcommaaccent" unicode="&#x137;" horiz-adv-x="1028" 
d="M491 -217q15 41 23 78q-38 4 -64 30q-29 32 -29 76q0 46 30.5 76.5t82.5 30.5t81.5 -34t29.5 -89q0 -112 -49 -206t-138 -161l-55 58q60 66 88 141zM117 0v1434h153v-811l553 434h215l-456 -373l456 -684h-188l-389 573l-191 -145v-428h-153z" />
    <glyph glyph-name="Lacute" unicode="&#x139;" horiz-adv-x="852" 
d="M332 1512l-68 100l326 240l86 -131zM129 0v1434h156v-1289h544v-145h-700z" />
    <glyph glyph-name="lacute" unicode="&#x13a;" horiz-adv-x="643" 
d="M186 1512l-68 100l326 240l86 -131zM246 0v1434h157v-1434h-157z" />
    <glyph glyph-name="Lcommaaccent" unicode="&#x13b;" horiz-adv-x="852" 
d="M428 -359q15 41 23 78q-38 4 -64 30q-29 32 -29 76q0 46 30.5 76.5t82.5 30.5t81.5 -34t29.5 -89q0 -112 -49 -206t-138 -161l-55 58q60 66 88 141zM145 0v1434h156v-1289h544v-145h-700z" />
    <glyph glyph-name="lcommaaccent" unicode="&#x13c;" horiz-adv-x="473" 
d="M205 -359q15 41 23 78q-38 4 -64 30q-29 32 -29 76q0 46 30.5 76.5t82.5 30.5t81.5 -34t29.5 -89q0 -112 -49 -206t-138 -161l-55 58q60 66 88 141zM168 0v1434h157v-1434h-157z" />
    <glyph glyph-name="Lcaron" unicode="&#x13d;" horiz-adv-x="852" 
d="M651 1146q15 41 22 77q-38 4 -63 31q-29 32 -29 76q0 46 30.5 76t82.5 30t81 -33.5t29 -88.5q0 -112 -48.5 -206.5t-137.5 -160.5l-55 57q61 68 88 142zM129 0v1434h156v-1289h544v-145h-700z" />
    <glyph glyph-name="lcaron" unicode="&#x13e;" horiz-adv-x="389" 
d="M117 0v1434h157v-1434h-157z" />
    <glyph glyph-name="Ldot" unicode="&#x13f;" horiz-adv-x="862" 
d="M129 0v1434h156v-1289h544v-145h-700zM637 535q0 42 26.5 72t73.5 30t75 -30t28 -72q0 -43 -28 -73t-75 -30t-73.5 30t-26.5 73z" />
    <glyph glyph-name="ldot" unicode="&#x140;" horiz-adv-x="618" 
d="M145 0v1434h160v-1434h-160zM483 459q-47 0 -73.5 29.5t-26.5 72.5t26.5 72t73.5 29t74 -29t27 -72t-27 -72.5t-74 -29.5z" />
    <glyph glyph-name="Lslash" unicode="&#x141;" horiz-adv-x="891" 
d="M156 0v467l-101 -41l-18 123l119 47v838h153v-775l375 154l21 -121l-396 -162v-385h547v-145h-700z" />
    <glyph glyph-name="lslash" unicode="&#x142;" horiz-adv-x="459" 
d="M164 0v500l-98 -62l-23 135l121 74v787h155v-691l99 62l26 -133l-125 -78v-594h-155z" />
    <glyph glyph-name="Nacute" unicode="&#x143;" horiz-adv-x="1407" 
d="M561 1512l-68 100l326 240l86 -131zM129 0v1466l993 -1112v1080h156v-1465l-993 1102v-1071h-156z" />
    <glyph glyph-name="nacute" unicode="&#x144;" 
d="M463 1140l-68 100l326 240l86 -131zM109 0v1057h155v-156q51 64 161 116t232 52q227 0 336 -121t109 -334v-614h-156v543q0 145 -34.5 229.5t-102 119t-180.5 34.5q-167 0 -266 -111t-99 -276v-539h-155z" />
    <glyph glyph-name="Ncommaaccent" unicode="&#x145;" horiz-adv-x="1407" 
d="M690 -217q15 41 23 78q-38 4 -64 30q-29 32 -29 76q0 46 30.5 76.5t82.5 30.5t81.5 -34t29.5 -89q0 -112 -49 -206t-138 -161l-55 58q60 66 88 141zM129 0v1466l993 -1112v1080h156v-1465l-993 1102v-1071h-156z" />
    <glyph glyph-name="ncommaaccent" unicode="&#x146;" 
d="M559 -217q15 41 23 78q-38 4 -64 30q-29 32 -29 76q0 46 30.5 76.5t82.5 30.5t81.5 -34t29.5 -89q0 -112 -49 -206t-138 -161l-55 58q60 66 88 141zM109 0v1057h155v-156q51 64 161 116t232 52q227 0 336 -121t109 -334v-614h-156v543q0 145 -34.5 229.5t-102 119
t-180.5 34.5q-167 0 -266 -111t-99 -276v-539h-155z" />
    <glyph glyph-name="Ncaron" unicode="&#x147;" horiz-adv-x="1407" 
d="M694 1512l-313 268l82 86l231 -188l230 188l80 -86zM129 0v1466l993 -1112v1080h156v-1465l-993 1102v-1071h-156z" />
    <glyph glyph-name="ncaron" unicode="&#x148;" 
d="M604 1140l-313 268l82 86l231 -188l230 188l80 -86zM109 0v1057h155v-156q51 64 161 116t232 52q227 0 336 -121t109 -334v-614h-156v543q0 145 -34.5 229.5t-102 119t-180.5 34.5q-167 0 -266 -111t-99 -276v-539h-155z" />
    <glyph glyph-name="napostrophe" unicode="&#x149;" horiz-adv-x="1501" 
d="M170 942l-55 41q26 15 42.5 68.5t16.5 89.5q-28 0 -46.5 91t-18.5 140q0 24 38.5 44t73.5 20q79 -90 70 -271q-5 -158 -121 -223zM424 0v1057h155v-156q51 64 161 116t232 52q227 0 336 -121t109 -334v-614h-156v543q0 145 -34.5 229.5t-102 119t-180.5 34.5
q-167 0 -266 -111t-99 -276v-539h-155z" />
    <glyph glyph-name="Eng" unicode="&#x14a;" horiz-adv-x="1407" 
d="M1122 23v98l-837 956v-1077h-156v1466l993 -1118v1086h156v-1418q0 -118 -50.5 -192t-152.5 -92q-84 -18 -209 4l4 137q29 -10 42 -13.5t38 -6.5t43 2q60 6 94.5 47.5t34.5 120.5z" />
    <glyph glyph-name="eng" unicode="&#x14b;" 
d="M946 -70v613q0 145 -34.5 229.5t-102 119t-180.5 34.5q-167 0 -264 -108t-101 -275v-543h-155v1057h155v-219q107 231 393 231q227 0 336 -121t109 -334v-714q0 -94 -34.5 -159.5t-113.5 -123.5l-88 131q39 40 59 77q21 37 21 105z" />
    <glyph glyph-name="Omacron" unicode="&#x14c;" horiz-adv-x="1599" 
d="M559 1600v133h482v-133h-482zM66 717q0 155 55.5 291t152.5 233t233.5 153t293.5 56q155 0 291.5 -56t233 -152.5t152.5 -233t56 -291.5q0 -208 -95 -375.5t-263 -262.5t-375 -95q-157 0 -293.5 55.5t-233.5 152.5t-152.5 233t-55.5 292zM225 715q0 -254 163 -420
t413 -166q163 0 294 75.5t205 209.5t74 301q0 168 -74 303t-205 211t-294 76q-164 0 -296 -76t-206 -211t-74 -303z" />
    <glyph glyph-name="omacron" unicode="&#x14d;" horiz-adv-x="1223" 
d="M370 1228v133h482v-133h-482zM57 528q0 237 153 389t402 152q248 0 400.5 -152t152.5 -389q0 -236 -152.5 -388t-400.5 -152q-249 0 -402 152t-153 388zM215 528q0 -173 110 -285t287 -112q176 0 286 112t110 285t-110 285.5t-286 112.5q-177 0 -287 -112.5t-110 -285.5z
" />
    <glyph glyph-name="Obreve" unicode="&#x14e;" horiz-adv-x="1599" 
d="M66 717q0 155 55.5 291t152.5 233t233.5 153t293.5 56q155 0 291.5 -56t233 -152.5t152.5 -233t56 -291.5q0 -208 -95 -375.5t-263 -262.5t-375 -95q-157 0 -293.5 55.5t-233.5 152.5t-152.5 233t-55.5 292zM225 715q0 -254 163 -420t413 -166q163 0 294 75.5t205 209.5
t74 301q0 168 -74 303t-205 211t-294 76q-164 0 -296 -76t-206 -211t-74 -303zM800 1545q-66 0 -126 22.5t-104 75.5t-44 127h119q3 -57 49 -83t106 -26q37 0 69 9t58.5 35t28.5 65h119q-2 -74 -46 -127t-104 -75.5t-125 -22.5z" />
    <glyph glyph-name="obreve" unicode="&#x14f;" horiz-adv-x="1223" 
d="M57 528q0 237 153 389t402 152q248 0 400.5 -152t152.5 -389q0 -236 -152.5 -388t-400.5 -152q-249 0 -402 152t-153 388zM215 528q0 -173 110 -285t287 -112q176 0 286 112t110 285t-110 285.5t-286 112.5q-177 0 -287 -112.5t-110 -285.5zM612 1173q-66 0 -126 22.5
t-104 75.5t-44 127h119q3 -57 49 -83t106 -26q37 0 69 9t58.5 35t28.5 65h119q-2 -74 -46 -127t-104 -75.5t-125 -22.5z" />
    <glyph glyph-name="Ohungarumlaut" unicode="&#x150;" horiz-adv-x="1599" 
d="M587 1516l-73 84l301 264l98 -112zM919 1516l-73 84l303 264l96 -112zM66 717q0 155 55.5 291t152.5 233t233.5 153t293.5 56q155 0 291.5 -56t233 -152.5t152.5 -233t56 -291.5q0 -208 -95 -375.5t-263 -262.5t-375 -95q-157 0 -293.5 55.5t-233.5 152.5t-152.5 233
t-55.5 292zM225 715q0 -254 163 -420t413 -166q163 0 294 75.5t205 209.5t74 301q0 168 -74 303t-205 211t-294 76q-164 0 -296 -76t-206 -211t-74 -303z" />
    <glyph glyph-name="ohungarumlaut" unicode="&#x151;" horiz-adv-x="1223" 
d="M376 1144l-73 84l301 264l98 -112zM708 1144l-73 84l303 264l96 -112zM57 528q0 237 153 389t402 152q248 0 400.5 -152t152.5 -389q0 -236 -152.5 -388t-400.5 -152q-249 0 -402 152t-153 388zM215 528q0 -173 110 -285t287 -112q176 0 286 112t110 285t-110 285.5
t-286 112.5q-177 0 -287 -112.5t-110 -285.5z" />
    <glyph glyph-name="OE" unicode="&#x152;" horiz-adv-x="2019" 
d="M70 717q0 157 55 291t151.5 227.5t232.5 146t294 52.5h1124v-146h-737v-493h690v-146h-690v-504h766v-145h-1153q-211 0 -378 89.5t-261 253.5t-94 374zM229 717q0 -251 162.5 -412.5t411.5 -161.5h231v1147h-231q-249 0 -411.5 -161.5t-162.5 -411.5z" />
    <glyph glyph-name="oe" unicode="&#x153;" horiz-adv-x="2236" 
d="M57 528q0 152 69.5 275t197 194.5t288.5 71.5q195 0 336.5 -103t192.5 -270q47 174 183 273q136 100 329 100q236 0 383 -147.5t147 -389.5v-53h-903q8 -149 113.5 -248.5t265.5 -99.5q112 0 204.5 53.5t145.5 151.5l133 -78q-77 -136 -206 -203q-130 -67 -277 -67
q-202 0 -336 100q-136 101 -182 272q-51 -170 -191.5 -271t-337.5 -101q-245 0 -400 154.5t-155 385.5zM215 528q0 -173 110.5 -285t286.5 -112q175 0 285.5 112t110.5 285t-110.5 285.5t-285.5 112.5q-176 0 -286.5 -112.5t-110.5 -285.5zM1282 604h739q-17 149 -110 238
q-95 90 -258 90q-149 0 -252 -91.5t-119 -236.5z" />
    <glyph glyph-name="Racute" unicode="&#x154;" 
d="M455 1512l-68 100l326 240l86 -131zM129 0v1434h508q135 0 243.5 -52.5t173 -156t64.5 -242.5q0 -160 -86 -267.5t-225 -148.5l334 -567h-176l-312 532h-368v-532h-156zM285 676h352q136 0 228.5 82.5t92.5 224.5t-92.5 224.5t-228.5 82.5h-352v-614z" />
    <glyph glyph-name="racute" unicode="&#x155;" horiz-adv-x="672" 
d="M177 1140l-68 100l326 240l86 -131zM121 0v1057h155v-156q61 87 133.5 127.5t171.5 40.5q39 0 76 -6l-18 -154q-28 6 -64 6q-146 0 -222 -97q-77 -98 -77 -253v-565h-155z" />
    <glyph glyph-name="Rcommaaccent" unicode="&#x156;" 
d="M577 -217q15 41 23 78q-38 4 -64 30q-29 32 -29 76q0 46 30.5 76.5t82.5 30.5t81.5 -34t29.5 -89q0 -112 -49 -206t-138 -161l-55 58q60 66 88 141zM129 0v1434h508q135 0 243.5 -52.5t173 -156t64.5 -242.5q0 -160 -86 -267.5t-225 -148.5l334 -567h-176l-312 532h-368
v-532h-156zM285 676h352q136 0 228.5 82.5t92.5 224.5t-92.5 224.5t-228.5 82.5h-352v-614z" />
    <glyph glyph-name="rcommaaccent" unicode="&#x157;" horiz-adv-x="709" 
d="M197 -359q15 41 23 78q-38 4 -64 30q-29 32 -29 76q0 46 30.5 76.5t82.5 30.5t81.5 -34t29.5 -89q0 -112 -49 -206t-138 -161l-55 58q60 66 88 141zM158 0v1057h155v-156q61 87 133.5 127.5t171.5 40.5q38 0 76 -6l-18 -154q-28 6 -64 6q-146 0 -222 -97
q-77 -98 -77 -253v-565h-155z" />
    <glyph glyph-name="Rcaron" unicode="&#x158;" 
d="M594 1512l-313 268l82 86l231 -188l230 188l80 -86zM129 0v1434h508q135 0 243.5 -52.5t173 -156t64.5 -242.5q0 -160 -86 -267.5t-225 -148.5l334 -567h-176l-312 532h-368v-532h-156zM285 676h352q136 0 228.5 82.5t92.5 224.5t-92.5 224.5t-228.5 82.5h-352v-614z" />
    <glyph glyph-name="rcaron" unicode="&#x159;" horiz-adv-x="752" 
d="M421 1140l-313 268l82 86l231 -188l230 188l80 -86zM201 0v1057h155v-156q61 87 133.5 127.5t171.5 40.5q39 0 76 -6l-18 -154q-28 6 -64 6q-146 0 -222 -97q-77 -98 -77 -253v-565h-155z" />
    <glyph glyph-name="Sacute" unicode="&#x15a;" horiz-adv-x="1098" 
d="M418 1512l-68 100l326 240l86 -131zM59 309l140 64q101 -246 364 -246q151 0 234 73q84 74 84 189q0 37 -10.5 69.5t-26 56.5t-43.5 47t-51 37t-61.5 30.5t-63 25.5t-66.5 23q-195 57 -284 122q-138 102 -138 283q0 168 121 267.5t311 99.5q277 0 408 -221l-133 -68
q-43 75 -116.5 111.5t-164.5 36.5q-116 0 -193 -61.5t-77 -170.5q0 -58 20.5 -100t73.5 -73t86 -44.5t115 -39.5q5 -2 8 -3q161 -52 231 -90q208 -115 209 -332q0 -182 -128.5 -296.5t-348.5 -114.5q-360 0 -500 325z" />
    <glyph glyph-name="sacute" unicode="&#x15b;" horiz-adv-x="840" 
d="M279 1140l-68 100l326 240l86 -131zM33 188l104 91q38 -50 70.5 -80t84.5 -52t116 -22q102 0 163.5 47t61.5 127q0 27 -6.5 48.5t-22.5 39t-30 29t-42.5 24t-46 18.5t-54.5 18t-54 18q-44 13 -79 27t-74 38t-65.5 53t-43.5 73t-17 97q0 131 90 209q92 78 246 78
q210 0 338 -129l-92 -111q-115 97 -242 97q-76 0 -130 -36t-54 -102q0 -29 12 -52t29.5 -38.5t50.5 -31t63 -26t79 -25.5q7 -2 10 -3q29 -8 52 -15.5t55 -21.5t56 -29.5t49.5 -40t42.5 -52t27.5 -66t10.5 -82.5q0 -146 -100 -231q-100 -86 -271 -86q-252 0 -387 200z" />
    <glyph glyph-name="Scircumflex" unicode="&#x15c;" horiz-adv-x="1098" 
d="M326 1504l-82 84l313 270l310 -268l-80 -86l-230 186zM59 309l140 64q101 -246 364 -246q151 0 234 73q84 74 84 189q0 37 -10.5 69.5t-26 56.5t-43.5 47t-51 37t-61.5 30.5t-63 25.5t-66.5 23q-195 57 -284 122q-138 102 -138 283q0 168 121 267.5t311 99.5
q277 0 408 -221l-133 -68q-43 75 -116.5 111.5t-164.5 36.5q-116 0 -193 -61.5t-77 -170.5q0 -58 20.5 -100t73.5 -73t86 -44.5t115 -39.5q5 -2 8 -3q161 -52 231 -90q208 -115 209 -332q0 -182 -128.5 -296.5t-348.5 -114.5q-360 0 -500 325z" />
    <glyph glyph-name="scircumflex" unicode="&#x15d;" horiz-adv-x="840" 
d="M186 1132l-82 84l313 270l310 -268l-80 -86l-230 186zM33 188l104 91q38 -50 70.5 -80t84.5 -52t116 -22q102 0 163.5 47t61.5 127q0 27 -6.5 48.5t-22.5 39t-30 29t-42.5 24t-46 18.5t-54.5 18t-54 18q-44 13 -79 27t-74 38t-65.5 53t-43.5 73t-17 97q0 131 90 209
q92 78 246 78q210 0 338 -129l-92 -111q-115 97 -242 97q-76 0 -130 -36t-54 -102q0 -29 12 -52t29.5 -38.5t50.5 -31t63 -26t79 -25.5q7 -2 10 -3q29 -8 52 -15.5t55 -21.5t56 -29.5t49.5 -40t42.5 -52t27.5 -66t10.5 -82.5q0 -146 -100 -231q-100 -86 -271 -86
q-252 0 -387 200z" />
    <glyph glyph-name="Scedilla" unicode="&#x15e;" horiz-adv-x="1098" 
d="M59 309l140 64q101 -246 364 -246q151 0 234 73q84 74 84 189q0 51 -19 93t-47 69.5t-74.5 53t-85.5 40.5t-96 33l-67.5 21t-65 22.5t-65.5 27.5t-58.5 32t-55.5 39.5t-44 48t-36.5 59.5t-21 70.5t-8.5 84.5q0 168 121 267.5t311 99.5q277 0 408 -221l-133 -68
q-43 75 -116.5 111.5t-164.5 36.5q-116 0 -193 -61.5t-77 -170.5q0 -34 9 -62.5t20.5 -49t37 -40.5t45 -32.5t58 -28t62 -23.5t71.5 -24q51 -15 85.5 -27t84.5 -33.5t84 -42.5t72 -54t61 -70t38 -87t15 -108q0 -170 -114.5 -283.5t-309.5 -125.5l-34 -58q57 0 107 -44
t50 -117t-51 -120.5t-123 -47.5q-44 0 -85 20t-62 57l102 66q21 -27 49 -27q51 0 51 54q0 25 -15.5 40t-45.5 15q-37 0 -61 -23l-97 56l80 133q-296 32 -418 319z" />
    <glyph glyph-name="scedilla" unicode="&#x15f;" horiz-adv-x="840" 
d="M33 188l104 91q38 -50 70.5 -80t84.5 -52t116 -22q102 0 163.5 47t61.5 127q0 27 -6.5 48.5t-22.5 39t-30 29t-42.5 24t-46 18.5t-54.5 18t-54 18q-44 13 -79 27t-74 38t-65.5 53t-43.5 73t-17 97q0 131 90 209q92 78 246 78q210 0 338 -129l-92 -111q-115 97 -242 97
q-76 0 -130 -36t-54 -102q0 -29 12 -52t29.5 -38.5t50.5 -31t63 -26t79 -25.5q7 -2 10 -3q29 -8 52 -15.5t55 -21.5t56 -29.5t49.5 -40t42.5 -52t27.5 -66t10.5 -82.5q0 -132 -82 -214q-83 -83 -226 -99l-37 -64q58 0 108 -44t50 -117q0 -71 -47 -120q-47 -48 -123 -48
q-110 0 -151 77l102 66q21 -27 49 -27q25 0 38 15.5t13 38.5q0 25 -16 40t-45 15q-37 0 -62 -23l-96 56l80 135q-196 24 -313 196z" />
    <glyph glyph-name="Scaron" unicode="&#x160;" horiz-adv-x="1098" 
d="M557 1512l-313 268l82 86l231 -188l230 188l80 -86zM59 309l140 64q101 -246 364 -246q151 0 234 73q84 74 84 189q0 37 -10.5 69.5t-26 56.5t-43.5 47t-51 37t-61.5 30.5t-63 25.5t-66.5 23q-195 57 -284 122q-138 102 -138 283q0 168 121 267.5t311 99.5
q277 0 408 -221l-133 -68q-43 75 -116.5 111.5t-164.5 36.5q-116 0 -193 -61.5t-77 -170.5q0 -58 20.5 -100t73.5 -73t86 -44.5t115 -39.5q5 -2 8 -3q161 -52 231 -90q208 -115 209 -332q0 -182 -128.5 -296.5t-348.5 -114.5q-360 0 -500 325z" />
    <glyph glyph-name="scaron" unicode="&#x161;" horiz-adv-x="840" 
d="M417 1140l-313 268l82 86l231 -188l230 188l80 -86zM33 188l104 91q38 -50 70.5 -80t84.5 -52t116 -22q102 0 163.5 47t61.5 127q0 27 -6.5 48.5t-22.5 39t-30 29t-42.5 24t-46 18.5t-54.5 18t-54 18q-44 13 -79 27t-74 38t-65.5 53t-43.5 73t-17 97q0 131 90 209
q92 78 246 78q210 0 338 -129l-92 -111q-115 97 -242 97q-76 0 -130 -36t-54 -102q0 -29 12 -52t29.5 -38.5t50.5 -31t63 -26t79 -25.5q7 -2 10 -3q29 -8 52 -15.5t55 -21.5t56 -29.5t49.5 -40t42.5 -52t27.5 -66t10.5 -82.5q0 -146 -100 -231q-100 -86 -271 -86
q-252 0 -387 200z" />
    <glyph glyph-name="Tcommaaccent" unicode="&#x162;" horiz-adv-x="1036" 
d="M475 -359q15 41 23 78q-38 4 -64 30q-29 32 -29 76q0 46 30.5 76.5t82.5 30.5t81.5 -34t29.5 -89q0 -112 -49 -206t-138 -161l-55 58q60 66 88 141zM440 0v1288h-417v146h991v-146h-418v-1288h-156z" />
    <glyph glyph-name="tcommaaccent" unicode="&#x163;" horiz-adv-x="688" 
d="M330 -359q15 41 23 78q-38 4 -64 30q-29 32 -29 76q0 46 30.5 76.5t82.5 30.5t81.5 -34t29.5 -89q0 -112 -49 -206t-138 -161l-55 58q60 66 88 141zM176 305v615h-115v137h115v254h156v-254h221v-137h-221v-613q0 -70 35 -123q36 -51 104 -51q64 0 131 37l57 -121
q-75 -61 -221 -61q-262 0 -262 317z" />
    <glyph glyph-name="Tcaron" unicode="&#x164;" horiz-adv-x="1036" 
d="M520 1512l-313 268l82 86l231 -188l230 188l80 -86zM440 0v1288h-417v146h991v-146h-418v-1288h-156z" />
    <glyph glyph-name="tcaron" unicode="&#x165;" horiz-adv-x="688" 
d="M176 305v615h-115v137h115v254h156v-254h221v-137h-221v-613q0 -70 35 -123q36 -51 104 -51q64 0 131 37l57 -121q-75 -61 -221 -61q-262 0 -262 317z" />
    <glyph glyph-name="Tbar" unicode="&#x166;" horiz-adv-x="1036" 
d="M440 0v944h-295v146h295v198h-417v146h991v-146h-418v-198h295v-146h-295v-944h-156z" />
    <glyph glyph-name="tbar" unicode="&#x167;" horiz-adv-x="686" 
d="M174 305v420h-113v127h113v78h-113v127h113v254h156v-254h223v-127h-223v-78h223v-127h-223v-416q0 -85 36 -132.5t97 -47.5q64 0 137 41l57 -123q-73 -59 -211 -59q-272 0 -272 317z" />
    <glyph glyph-name="Utilde" unicode="&#x168;" horiz-adv-x="1374" 
d="M109 563v873h155v-873q0 -97 22.5 -173.5t71 -135.5t131 -91t195.5 -32q426 0 426 432v873h156v-873q0 -277 -141.5 -428t-440.5 -151q-298 0 -436.5 147t-138.5 432zM491 1577h-118q0 23 10 53.5t30.5 64t60.5 56.5t93 23q45 0 85 -17.5t63.5 -38t50.5 -38t49 -17.5
q33 0 48 21.5t22 67.5h120q-8 -105 -62 -153t-126 -48q-41 0 -77.5 17t-58 38t-50.5 38t-58 17q-33 0 -55 -23.5t-27 -60.5z" />
    <glyph glyph-name="utilde" unicode="&#x169;" 
d="M1077 1057v-1057h-155v156q-51 -65 -161 -116.5t-233 -51.5q-227 0 -335.5 120.5t-108.5 333.5v615h156v-543q0 -215 73 -299t244 -84q166 0 265.5 111t99.5 276v539h155zM389 1205h-118q0 23 10 53.5t30.5 64t60.5 56.5t93 23q45 0 85 -17.5t63.5 -38t50.5 -38t49 -17.5
q33 0 48 21.5t22 67.5h120q-8 -105 -62 -153t-126 -48q-41 0 -77.5 17t-58 38t-50.5 38t-58 17q-33 0 -55 -23.5t-27 -60.5z" />
    <glyph glyph-name="Umacron" unicode="&#x16a;" horiz-adv-x="1374" 
d="M109 563v873h155v-873q0 -97 22.5 -173.5t71 -135.5t131 -91t195.5 -32q426 0 426 432v873h156v-873q0 -277 -141.5 -428t-440.5 -151q-298 0 -436.5 147t-138.5 432zM444 1600v133h482v-133h-482z" />
    <glyph glyph-name="umacron" unicode="&#x16b;" 
d="M1077 1057v-1057h-155v156q-51 -65 -161 -116.5t-233 -51.5q-227 0 -335.5 120.5t-108.5 333.5v615h156v-543q0 -215 73 -299t244 -84q166 0 265.5 111t99.5 276v539h155zM344 1228v133h482v-133h-482z" />
    <glyph glyph-name="Ubreve" unicode="&#x16c;" horiz-adv-x="1374" 
d="M109 563v873h155v-873q0 -97 22.5 -173.5t71 -135.5t131 -91t195.5 -32q426 0 426 432v873h156v-873q0 -277 -141.5 -428t-440.5 -151q-298 0 -436.5 147t-138.5 432zM686 1545q-66 0 -126 22.5t-104 75.5t-44 127h119q3 -57 49 -83t106 -26q37 0 69 9t58.5 35t28.5 65
h119q-2 -74 -46 -127t-104 -75.5t-125 -22.5z" />
    <glyph glyph-name="ubreve" unicode="&#x16d;" 
d="M1077 1057v-1057h-155v156q-51 -65 -161 -116.5t-233 -51.5q-227 0 -335.5 120.5t-108.5 333.5v615h156v-543q0 -215 73 -299t244 -84q166 0 265.5 111t99.5 276v539h155zM585 1173q-66 0 -126 22.5t-104 75.5t-44 127h119q3 -57 49 -83t106 -26q37 0 69 9t58.5 35
t28.5 65h119q-2 -74 -46 -127t-104 -75.5t-125 -22.5z" />
    <glyph glyph-name="Uring" unicode="&#x16e;" horiz-adv-x="1374" 
d="M686 1506q-77 0 -119 46t-42 113q0 71 42.5 115.5t118.5 44.5q78 0 120 -44t42 -116q0 -70 -42.5 -114.5t-119.5 -44.5zM686 1596q34 0 52 19.5t18 49.5q0 31 -18 50.5t-52 19.5q-31 0 -50 -20t-19 -50q0 -29 19 -49t50 -20zM109 563v873h155v-873q0 -97 22.5 -173.5
t71 -135.5t131 -91t195.5 -32q426 0 426 432v873h156v-873q0 -277 -141.5 -428t-440.5 -151q-298 0 -436.5 147t-138.5 432z" />
    <glyph glyph-name="uring" unicode="&#x16f;" 
d="M583 1134q-77 0 -119 46t-42 113q0 71 42.5 115.5t118.5 44.5q78 0 120 -44t42 -116q0 -70 -42.5 -114.5t-119.5 -44.5zM583 1224q34 0 52 19.5t18 49.5q0 31 -18 50.5t-52 19.5q-31 0 -50 -20t-19 -50q0 -29 19 -49t50 -20zM1077 1057v-1057h-155v156
q-51 -65 -161 -116.5t-233 -51.5q-227 0 -335.5 120.5t-108.5 333.5v615h156v-543q0 -215 73 -299t244 -84q166 0 265.5 111t99.5 276v539h155z" />
    <glyph glyph-name="Uhungarumlaut" unicode="&#x170;" horiz-adv-x="1374" 
d="M109 563v873h155v-873q0 -97 22.5 -173.5t71 -135.5t131 -91t195.5 -32q426 0 426 432v873h156v-873q0 -277 -141.5 -428t-440.5 -151q-298 0 -436.5 147t-138.5 432zM471 1516l-73 84l301 264l98 -112zM803 1516l-73 84l303 264l96 -112z" />
    <glyph glyph-name="uhungarumlaut" unicode="&#x171;" 
d="M1077 1057v-1057h-155v156q-51 -65 -161 -116.5t-233 -51.5q-227 0 -335.5 120.5t-108.5 333.5v615h156v-543q0 -215 73 -299t244 -84q166 0 265.5 111t99.5 276v539h155zM348 1144l-73 84l301 264l98 -112zM680 1144l-73 84l303 264l96 -112z" />
    <glyph glyph-name="Uogonek" unicode="&#x172;" horiz-adv-x="1374" 
d="M109 559v877h155v-877q0 -430 424 -430q422 0 422 430v877h156v-877q0 -258 -122 -401t-331 -164q-21 -28 -63 -71.5t-61 -73t-19 -62.5q0 -24 14.5 -38.5t38.5 -14.5q18 0 30 10t27 43l105 -53q-18 -61 -63 -93t-101 -32q-78 0 -127 48t-49 126q0 94 84 201
q-271 12 -395.5 157.5t-124.5 417.5z" />
    <glyph glyph-name="uogonek" unicode="&#x173;" horiz-adv-x="1249" 
d="M84 442v615h156v-543q0 -213 74.5 -298t250.5 -85q162 0 259.5 113.5t97.5 285.5v527h155v-1057q-40 -21 -92.5 -94.5t-52.5 -100.5q-10 -27 4 -49t43 -22q18 0 30 10t27 43l105 -53q-18 -61 -62.5 -93t-101.5 -32q-83 0 -130 50q-46 49 -46 122q0 51 27 106
q30 56 94 144v188q-108 -231 -392 -231q-228 0 -337 120.5t-109 333.5z" />
    <glyph glyph-name="Wcircumflex" unicode="&#x174;" horiz-adv-x="1872" 
d="M707 1506l-82 84l313 270l310 -268l-80 -86l-230 186zM580 -31l-545 1465h166l381 -1043l272 727l-104 287h165l371 -1014l389 1043h166l-553 -1465l-352 936z" />
    <glyph glyph-name="wcircumflex" unicode="&#x175;" horiz-adv-x="1530" 
d="M537 1132l-82 84l313 270l310 -268l-80 -86l-230 186zM496 -29l-496 1086h170l322 -740l200 543l-84 197h162l272 -727l320 727h170l-496 -1086l-270 688z" />
    <glyph glyph-name="Ycircumflex" unicode="&#x176;" horiz-adv-x="1219" 
d="M530 0v535l-507 899h176l409 -738l412 738h178l-512 -902v-532h-156zM379 1504l-82 84l313 270l310 -268l-80 -86l-230 186z" />
    <glyph glyph-name="ycircumflex" unicode="&#x177;" horiz-adv-x="1051" 
d="M279 -348l-29 151q53 21 88 51.5t55 84.5l51 124l-424 994h168l340 -805l342 805h170l-508 -1184q-41 -95 -97 -144q-56 -52 -156 -77zM301 1132l-82 84l313 270l310 -268l-80 -86l-230 186z" />
    <glyph glyph-name="Ydieresis" unicode="&#x178;" horiz-adv-x="1219" 
d="M530 0v535l-507 899h176l409 -738l412 738h178l-512 -902v-532h-156zM476 1582q-41 0 -66 26t-25 64q0 40 24.5 66t66.5 26q41 0 65.5 -26t24.5 -66q0 -38 -25 -64t-65 -26zM744 1582q-40 0 -65 26t-25 64q0 40 24.5 66t65.5 26q42 0 66 -26t24 -66q0 -38 -24.5 -64
t-65.5 -26z" />
    <glyph glyph-name="Zacute" unicode="&#x179;" horiz-adv-x="1161" 
d="M455 1512l-68 100l326 240l86 -131zM35 0l801 1288h-715v146h981l-801 -1289h811v-145h-1077z" />
    <glyph glyph-name="zacute" unicode="&#x17a;" horiz-adv-x="1016" 
d="M385 1140l-68 100l326 240l86 -131zM43 0l633 913h-574v144h850l-635 -914h652v-143h-926z" />
    <glyph glyph-name="Zdotaccent" unicode="&#x17b;" horiz-adv-x="1161" 
d="M35 0l801 1288h-715v146h981l-801 -1289h811v-145h-1077zM586 1590q-40 0 -60 21.5t-20 58.5q0 36 20.5 59t59.5 23q40 0 61 -23t21 -59q0 -37 -21 -58.5t-61 -21.5z" />
    <glyph glyph-name="zdotaccent" unicode="&#x17c;" horiz-adv-x="1016" 
d="M43 0l633 913h-574v144h850l-635 -914h652v-143h-926zM525 1218q-40 0 -60 21.5t-20 58.5q0 36 20.5 59t59.5 23q40 0 61 -23t21 -59q0 -37 -21 -58.5t-61 -21.5z" />
    <glyph glyph-name="Zcaron" unicode="&#x17d;" horiz-adv-x="1161" 
d="M585 1512l-313 268l82 86l231 -188l230 188l80 -86zM35 0l801 1288h-715v146h981l-801 -1289h811v-145h-1077z" />
    <glyph glyph-name="zcaron" unicode="&#x17e;" horiz-adv-x="1016" 
d="M524 1140l-313 268l82 86l231 -188l230 188l80 -86zM43 0l633 913h-574v144h850l-635 -914h652v-143h-926z" />
    <glyph glyph-name="florin" unicode="&#x192;" horiz-adv-x="1012" 
d="M-33 -6l99 110q27 -25 49.5 -34t54.5 -9q57 0 90.5 55t56.5 173l99 493h-127l20 146h137l43 215q30 151 94.5 226t174.5 75q123 0 221 -98l-98 -111q-45 45 -105 45t-92 -60q-29 -55 -53 -163l-27 -129h148l-27 -146h-152l-114 -579q-30 -153 -95 -230t-176 -77
q-123 0 -221 98z" />
    <glyph glyph-name="Scommaaccent" unicode="&#x218;" horiz-adv-x="1098" 
d="M532 -359q15 41 23 78q-38 4 -64 30q-29 32 -29 76q0 46 30.5 76.5t82.5 30.5t81.5 -34t29.5 -89q0 -112 -49 -206t-138 -161l-55 58q60 66 88 141zM59 309l140 64q101 -246 364 -246q151 0 234 73q84 74 84 189q0 37 -10.5 69.5t-26 56.5t-43.5 47t-51 37t-61.5 30.5
t-63 25.5t-66.5 23q-195 57 -284 122q-138 102 -138 283q0 168 121 267.5t311 99.5q277 0 408 -221l-133 -68q-43 75 -116.5 111.5t-164.5 36.5q-116 0 -193 -61.5t-77 -170.5q0 -58 20.5 -100t73.5 -73t86 -44.5t115 -39.5q5 -2 8 -3q161 -52 231 -90q208 -115 209 -332
q0 -182 -128.5 -296.5t-348.5 -114.5q-360 0 -500 325z" />
    <glyph glyph-name="scommaaccent" unicode="&#x219;" horiz-adv-x="840" 
d="M383 -359q15 41 23 78q-38 4 -64 30q-29 32 -29 76q0 46 30.5 76.5t82.5 30.5t81.5 -34t29.5 -89q0 -112 -49 -206t-138 -161l-55 58q60 66 88 141zM33 188l104 91q38 -50 70.5 -80t84.5 -52t116 -22q102 0 163.5 47t61.5 127q0 27 -6.5 48.5t-22.5 39t-30 29t-42.5 24
t-46 18.5t-54.5 18t-54 18q-44 13 -79 27t-74 38t-65.5 53t-43.5 73t-17 97q0 131 90 209q92 78 246 78q210 0 338 -129l-92 -111q-115 97 -242 97q-76 0 -130 -36t-54 -102q0 -29 12 -52t29.5 -38.5t50.5 -31t63 -26t79 -25.5q7 -2 10 -3q29 -8 52 -15.5t55 -21.5t56 -29.5
t49.5 -40t42.5 -52t27.5 -66t10.5 -82.5q0 -146 -100 -231q-100 -86 -271 -86q-252 0 -387 200z" />
    <glyph glyph-name="uni021A" unicode="&#x21a;" horiz-adv-x="1036" 
d="M475 -359q15 41 23 78q-38 4 -64 30q-29 32 -29 76q0 46 30.5 76.5t82.5 30.5t81.5 -34t29.5 -89q0 -112 -49 -206t-138 -161l-55 58q60 66 88 141zM440 0v1288h-417v146h991v-146h-418v-1288h-156z" />
    <glyph glyph-name="uni021B" unicode="&#x21b;" horiz-adv-x="688" 
d="M330 -359q15 41 23 78q-38 4 -64 30q-29 32 -29 76q0 46 30.5 76.5t82.5 30.5t81.5 -34t29.5 -89q0 -112 -49 -206t-138 -161l-55 58q60 66 88 141zM176 305v615h-115v137h115v254h156v-254h221v-137h-221v-613q0 -70 35 -123q36 -51 104 -51q64 0 131 37l57 -121
q-75 -61 -221 -61q-262 0 -262 317z" />
    <glyph glyph-name="dotlessj" unicode="&#x237;" horiz-adv-x="424" 
d="M141 -70v1096h156v-1126q0 -95 -35 -160.5t-115 -122.5l-86 131q39 40 59 77q21 37 21 105z" />
    <glyph glyph-name="schwa" unicode="&#x259;" horiz-adv-x="1176" 
d="M53 578h905q-11 150 -115 249t-265 99q-112 0 -205 -53t-146 -152l-133 78q77 135 206 202q131 68 278 68q242 0 391 -148.5t149 -392.5t-149 -392t-383 -148q-231 0 -378 140t-155 374q-2 16 -2 37t2 39zM954 453h-737q13 -148 108 -238t259 -90q149 0 251.5 91.5
t118.5 236.5z" />
    <glyph glyph-name="circumflex" unicode="&#x2c6;" horiz-adv-x="715" 
d="M127 1182l-82 84l313 270l310 -268l-80 -86l-230 186z" />
    <glyph glyph-name="caron" unicode="&#x2c7;" horiz-adv-x="715" 
d="M358 1190l-313 268l82 86l231 -188l230 188l80 -86z" />
    <glyph glyph-name="uni02C9" unicode="&#x2c9;" horiz-adv-x="588" 
d="M53 1278v133h482v-133h-482z" />
    <glyph glyph-name="breve" unicode="&#x2d8;" horiz-adv-x="633" 
d="M317 1223q-66 0 -126 22.5t-104 75.5t-44 127h119q3 -57 49 -83t106 -26q37 0 69 9t58.5 35t28.5 65h119q-2 -74 -46 -127t-104 -75.5t-125 -22.5z" />
    <glyph glyph-name="dotaccent" unicode="&#x2d9;" horiz-adv-x="573" 
d="M285 1268q-40 0 -60 21.5t-20 58.5q0 36 20.5 59t59.5 23q40 0 61 -23t21 -59q0 -37 -21 -58.5t-61 -21.5z" />
    <glyph glyph-name="ring" unicode="&#x2da;" horiz-adv-x="641" 
d="M319 1184q-77 0 -119 46t-42 113q0 71 42.5 115.5t118.5 44.5q78 0 120 -44t42 -116q0 -70 -42.5 -114.5t-119.5 -44.5zM319 1274q34 0 52 19.5t18 49.5q0 31 -18 50.5t-52 19.5q-31 0 -50 -20t-19 -50q0 -29 19 -49t50 -20z" />
    <glyph glyph-name="ogonek" unicode="&#x2db;" horiz-adv-x="584" 
d="M319 -391q-77 0 -129 49q-51 50 -51 125q0 49 27 98l92 158l129 -41l-111 -178q-10 -16 -10 -37q0 -23 15.5 -37t37.5 -14q36 0 58 55l104 -53q-16 -55 -60 -90t-102 -35z" />
    <glyph glyph-name="tilde" unicode="&#x2dc;" horiz-adv-x="684" 
d="M145 1255h-118q0 23 10 53.5t30.5 64t60.5 56.5t93 23q45 0 85 -17.5t63.5 -38t50.5 -38t49 -17.5q33 0 48 21.5t22 67.5h120q-8 -105 -62 -153t-126 -48q-41 0 -77.5 17t-58 38t-50.5 38t-58 17q-33 0 -55 -23.5t-27 -60.5z" />
    <glyph glyph-name="hungarumlaut" unicode="&#x2dd;" horiz-adv-x="905" 
d="M233 1194l-73 84l301 264l98 -112zM565 1194l-73 84l303 264l96 -112z" />
    <glyph glyph-name="uni0394" unicode="&#x394;" horiz-adv-x="1534" 
d="M49 0l750 1661l686 -1661h-1436zM199 98h1001l-475 1157z" />
    <glyph glyph-name="uni03A9" unicode="&#x3a9;" horiz-adv-x="1917" 
d="M82 0v334h43q5 -73 39 -98q53 -41 164 -41h323v81q-248 73 -389 250q-137 175 -137 418q0 299 223 510q225 207 604 207q235 0 430 -88q199 -88 301 -256q107 -169 107 -373q0 -245 -145 -432q-146 -182 -379 -236l-11 -81h328q112 0 156 30q41 35 49 109h45v-334h-678
l29 334q165 68 248 201q77 131 77 368q0 325 -155 500q-162 174 -402 174q-233 0 -391 -176q-162 -174 -162 -481q0 -244 84 -383q79 -141 248 -203l29 -334h-678z" />
    <glyph glyph-name="uni03BC" unicode="&#x3bc;" horiz-adv-x="1446" 
d="M219 -102q17 150 17 243v955h200v-688q0 -126 23 -177q18 -53 69 -86q59 -32 107 -32q67 0 147 39q86 36 174 118v826h199v-721q0 -158 12 -201q9 -37 31 -59q22 -17 47 -17q29 0 58 29q24 32 36 119h47q-18 -162 -77 -221q-60 -62 -150 -62q-86 0 -139 53
q-55 55 -64 187q-115 -129 -233 -189q-114 -53 -188 -53q-56 0 -107 23q-54 20 -100 61q-2 -169 28 -303q23 -85 23 -129q0 -68 -31 -105q-33 -38 -76 -38q-45 0 -69 34q-37 43 -37 113q0 48 12 84q35 127 41 197z" />
    <glyph glyph-name="pi" unicode="&#x3c0;" horiz-adv-x="1378" 
d="M207 63q0 28 10 54q13 32 55 86q71 99 103 207q48 168 65 512h-53q-86 0 -131 -27q-70 -45 -127 -145h-47q67 203 158 288q62 58 190 58h842v-174h-289q-43 -288 -43 -525q0 -117 45 -176q43 -55 107 -55q53 0 90 37q37 32 49 104h41q-20 -182 -90 -266q-72 -78 -158 -78
q-95 0 -154 86q-63 82 -63 316q0 152 45 557h-311q-37 -629 -90 -793q-54 -166 -146 -166q-40 0 -69 29t-29 71z" />
    <glyph glyph-name="Wgrave" unicode="&#x1e80;" horiz-adv-x="1872" 
d="M580 -31l-545 1465h166l381 -1043l272 727l-104 287h165l371 -1014l389 1043h166l-553 -1465l-352 936zM1075 1514l-344 209l86 131l326 -240z" />
    <glyph glyph-name="wgrave" unicode="&#x1e81;" horiz-adv-x="1530" 
d="M496 -29l-496 1086h170l322 -740l200 543l-84 197h162l272 -727l320 727h170l-496 -1086l-270 688zM905 1190l-344 209l86 131l326 -240z" />
    <glyph glyph-name="Wacute" unicode="&#x1e82;" horiz-adv-x="1872" 
d="M813 1514l-68 100l326 240l86 -131zM580 -31l-545 1465h166l381 -1043l272 727l-104 287h165l371 -1014l389 1043h166l-553 -1465l-352 936z" />
    <glyph glyph-name="wacute" unicode="&#x1e83;" horiz-adv-x="1530" 
d="M629 1190l-68 100l326 240l86 -131zM496 -29l-496 1086h170l322 -740l200 543l-84 197h162l272 -727l320 727h170l-496 -1086l-270 688z" />
    <glyph glyph-name="Wdieresis" unicode="&#x1e84;" horiz-adv-x="1872" 
d="M811 1584q-41 0 -66 26t-25 64q0 40 24.5 66t66.5 26q41 0 65.5 -26t24.5 -66q0 -38 -25 -64t-65 -26zM1079 1584q-40 0 -65 26t-25 64q0 40 24.5 66t65.5 26q42 0 66 -26t24 -66q0 -38 -24.5 -64t-65.5 -26zM580 -31l-545 1465h166l381 -1043l272 727l-104 287h165
l371 -1014l389 1043h166l-553 -1465l-352 936z" />
    <glyph glyph-name="wdieresis" unicode="&#x1e85;" horiz-adv-x="1530" 
d="M633 1260q-41 0 -66 26t-25 64q0 40 24.5 66t66.5 26q41 0 65.5 -26t24.5 -66q0 -38 -25 -64t-65 -26zM901 1260q-40 0 -65 26t-25 64q0 40 24.5 66t65.5 26q42 0 66 -26t24 -66q0 -38 -24.5 -64t-65.5 -26zM496 -29l-496 1086h170l322 -740l200 543l-84 197h162
l272 -727l320 727h170l-496 -1086l-270 688z" />
    <glyph glyph-name="Ygrave" unicode="&#x1ef2;" horiz-adv-x="1219" 
d="M546 0v535l-507 899h176l409 -738l412 738h178l-512 -902v-532h-156zM764 1567l-344 209l86 131l326 -240z" />
    <glyph glyph-name="ygrave" unicode="&#x1ef3;" horiz-adv-x="1051" 
d="M279 -348l-29 151q53 21 88 51.5t55 84.5l51 124l-424 994h168l340 -805l342 805h170l-508 -1184q-41 -95 -97 -144q-56 -52 -156 -77zM663 1190l-344 209l86 131l326 -240z" />
    <glyph glyph-name="endash" unicode="&#x2013;" horiz-adv-x="1114" 
d="M80 457v145h954v-145h-954z" />
    <glyph glyph-name="emdash" unicode="&#x2014;" horiz-adv-x="1589" 
d="M80 457v145h1429v-145h-1429z" />
    <glyph glyph-name="quoteleft" unicode="&#x2018;" horiz-adv-x="399" 
d="M279 1456q-27 -27 -66 -31q7 -39 23 -77q30 -76 90 -142l-56 -57q-89 66 -137.5 160.5t-48.5 206.5q0 55 29 88.5t82 33.5q52 0 82 -30t30 -76q0 -45 -28 -76z" />
    <glyph glyph-name="quoteright" unicode="&#x2019;" horiz-adv-x="399" 
d="M162 1348q15 41 22 77q-38 4 -63 31q-29 32 -29 76q0 46 30.5 76t82.5 30t81 -33.5t29 -88.5q0 -112 -48.5 -206.5t-137.5 -160.5l-55 57q61 68 88 142z" />
    <glyph glyph-name="quotesinglbase" unicode="&#x201a;" horiz-adv-x="399" 
d="M162 -94q16 43 22 78q-39 4 -63 30q-29 32 -29 76q0 46 30.5 76.5t82.5 30.5t81 -34t29 -89q0 -112 -48.5 -206t-137.5 -161l-55 57q61 68 88 142z" />
    <glyph glyph-name="quotedblleft" unicode="&#x201c;" horiz-adv-x="707" 
d="M279 1456q-27 -27 -66 -31q7 -39 23 -77q30 -76 90 -142l-56 -57q-89 66 -137.5 160.5t-48.5 206.5q0 55 29 88.5t82 33.5q52 0 82 -30t30 -76q0 -45 -28 -76zM586 1456q-27 -27 -66 -31q7 -39 23 -77q30 -76 90 -142l-55 -57q-90 66 -138.5 160.5t-48.5 206.5
q0 55 29.5 88.5t81.5 33.5t82 -30t30 -76q0 -45 -28 -76z" />
    <glyph glyph-name="quotedblright" unicode="&#x201d;" horiz-adv-x="707" 
d="M162 1348q15 41 22 77q-38 4 -63 31q-29 32 -29 76q0 46 30.5 76t82.5 30t81 -33.5t29 -88.5q0 -112 -48.5 -206.5t-137.5 -160.5l-55 57q61 68 88 142zM469 1348q14 39 23 77q-37 4 -64 31q-29 32 -29 76q0 46 30.5 76t82.5 30t81.5 -33.5t29.5 -88.5q0 -112 -49 -206.5
t-138 -160.5l-55 57q61 68 88 142z" />
    <glyph glyph-name="quotedblbase" unicode="&#x201e;" horiz-adv-x="707" 
d="M162 -94q16 43 22 78q-39 4 -63 30q-29 32 -29 76q0 46 30.5 76.5t82.5 30.5t81 -34t29 -89q0 -112 -48.5 -206t-137.5 -161l-55 57q61 68 88 142zM469 -94q15 41 23 78q-38 4 -64 30q-29 32 -29 76q0 46 30.5 76.5t82.5 30.5t81.5 -34t29.5 -89q0 -112 -49 -206
t-138 -161l-55 57q61 68 88 142z" />
    <glyph glyph-name="dagger" unicode="&#x2020;" horiz-adv-x="821" 
d="M332 -172v1028h-260v156h260v422h155v-422h263v-156h-263v-1028h-155z" />
    <glyph glyph-name="daggerdbl" unicode="&#x2021;" horiz-adv-x="821" 
d="M72 250v156h260v450h-260v156h260v422h155v-422h263v-156h-263v-450h263v-156h-263v-422h-155v422h-260z" />
    <glyph glyph-name="bullet" unicode="&#x2022;" horiz-adv-x="731" 
d="M369 272q-111 0 -184.5 73t-73.5 183q0 109 73.5 182.5t184.5 73.5q106 0 179 -74t73 -182q0 -110 -73 -183t-179 -73z" />
    <glyph glyph-name="ellipsis" unicode="&#x2026;" horiz-adv-x="1073" 
d="M127 90q0 46 29 76.5t77 30.5q49 0 78 -30.5t29 -76.5t-29 -76t-78 -30q-48 0 -77 30t-29 76zM430 90q0 46 29 76.5t78 30.5q48 0 77 -30.5t29 -76.5t-29 -76t-77 -30q-49 0 -78 30t-29 76zM733 90q0 46 29.5 76.5t77.5 30.5t77 -30.5t29 -76.5t-29 -76t-77 -30t-77.5 30
t-29.5 76z" />
    <glyph glyph-name="perthousand" unicode="&#x2030;" horiz-adv-x="2005" 
d="M348 555q-121 0 -193 72q-71 74 -71 184t71 183q72 73 193 73q120 0 190 -73q72 -72 72 -183q0 -110 -72.5 -183t-189.5 -73zM348 666q63 0 103.5 41t40.5 104t-40.5 105t-103.5 42q-64 0 -103.5 -41.5t-39.5 -105.5t39 -104.5t104 -40.5zM315 16l660 1051l141 -23
l-657 -1052zM1083 -10q-118 0 -190 72q-72 73 -72 184q0 110 73 183t189 73q121 0 193 -73t72 -183t-72 -184q-72 -72 -193 -72zM1083 98q65 0 104.5 41.5t39.5 106.5q0 64 -39.5 104.5t-104.5 40.5q-63 0 -103 -41t-40 -104q0 -64 40 -106t103 -42zM1671 -10
q-119 0 -191 72q-71 74 -71 184t73 183t189 73q122 0 192 -73q72 -73 72 -183t-72 -184q-71 -72 -192 -72zM1671 98q65 0 104.5 41.5t39.5 106.5q0 64 -39.5 104.5t-104.5 40.5q-63 0 -103 -41t-40 -104q0 -64 40 -106t103 -42z" />
    <glyph glyph-name="guilsinglleft" unicode="&#x2039;" horiz-adv-x="588" 
d="M367 225l-291 301l293 303h172l-293 -303l293 -295z" />
    <glyph glyph-name="guilsinglright" unicode="&#x203a;" horiz-adv-x="588" 
d="M512 526l-291 -301l-174 6l293 295l-293 303h172z" />
    <glyph glyph-name="fraction" unicode="&#x2044;" horiz-adv-x="940" 
d="M88 16l623 1000l143 -25l-625 -999z" />
    <glyph glyph-name="Euro" unicode="&#x20ac;" horiz-adv-x="1505" 
d="M12 514v123h185q-7 41 -7 84q0 31 5 78h-183v125h207q63 237 254 381.5t453 144.5q328 0 524 -205l-113 -104q-156 162 -411 162q-195 0 -340 -104.5t-195 -274.5h639v-125h-674q-4 -19 -4 -39v-82q0 -21 4 -41h674v-123h-639q55 -176 197 -278.5t338 -102.5
q249 0 411 164l113 -104q-201 -207 -524 -207q-262 0 -453 144t-254 384h-207z" />
    <glyph glyph-name="afii61289" unicode="&#x2113;" horiz-adv-x="1063" 
d="M100 373q-11 0 -21.5 14.5t-4.5 26.5q13 12 94.5 84.5t128.5 119.5v420q0 188 43 326.5t132.5 217.5t217.5 79q110 0 178 -75.5t68 -186.5q0 -48 -10 -96.5t-23.5 -89t-41 -87.5t-48.5 -79.5t-61 -78.5t-63.5 -72t-71 -71t-69 -64.5t-71.5 -64.5v-288q0 -176 45 -255
t156 -79q141 0 248 221q10 10 28 -5q19 -13 19 -30q-111 -295 -363 -295q-89 0 -151.5 31.5t-97 92t-49.5 135t-15 173.5v140q-20 -19 -38.5 -36.5t-42.5 -36.5l-36 -28.5t-42 -33t-38 -29.5zM477 1266v-471q344 315 344 573q0 40 -9 75.5t-27.5 67.5t-52.5 51t-79 19
q-82 0 -129 -80t-47 -235z" />
    <glyph glyph-name="trademark" unicode="&#x2122;" horiz-adv-x="1038" 
d="M467 987l39 549l219 -315l217 315l41 -549l-113 -2l-16 242l-129 -209l-129 207l-16 -240zM176 987v432h-119v113h361v-113h-129v-432h-113z" />
    <glyph glyph-name="Omega" unicode="&#x2126;" horiz-adv-x="1917" 
d="M82 0v334h43q5 -73 39 -98q53 -41 164 -41h323v81q-248 73 -389 250q-137 175 -137 418q0 299 223 510q225 207 604 207q235 0 430 -88q199 -88 301 -256q107 -169 107 -373q0 -245 -145 -432q-146 -182 -379 -236l-11 -81h328q112 0 156 30q41 35 49 109h45v-334h-678
l29 334q165 68 248 201q77 131 77 368q0 325 -155 500q-162 174 -402 174q-233 0 -391 -176q-162 -174 -162 -481q0 -244 84 -383q79 -141 248 -203l29 -334h-678z" />
    <glyph glyph-name="estimated" unicode="&#x212e;" horiz-adv-x="2034" 
d="M471 250q106 -113 246 -174.5t303 -61.5q172 0 322 71q149 71 253 196h131q-122 -144 -307 -230q-186 -86 -401 -86q-184 0 -347 63q-164 65 -286 172q-125 110 -194.5 258t-69.5 312q0 166 69.5 313.5t194.5 257.5q126 111 289.5 173.5t343.5 62.5q185 0 347 -64
q164 -63 285 -172q122 -108 192 -256q71 -148 71 -315v-20h-1450q-12 0 -12 -13v-436q0 -28 20 -51zM463 795h1110q10 0 10 12v442q0 18 -4 27.5t-18 23.5q-108 108 -246.5 168t-294.5 60q-326 0 -547 -234q-22 -22 -22 -55v-432q0 -12 12 -12z" />
    <glyph glyph-name="partialdiff" unicode="&#x2202;" horiz-adv-x="1245" 
d="M203 72q-109 103 -109 290q0 118 47 254q43 121 123 220q77 95 158 145q61 43 166 82q86 24 166 24q100 0 180 -36q82 -41 129 -93q46 -52 67 -100q15 114 15 221q0 217 -113 336t-301 119q-118 0 -211 -49q-82 -45 -151 -144h-54q93 191 199 275q104 86 258 86
q107 0 209 -60q105 -57 166 -188q61 -128 61 -352q0 -422 -184 -762q-206 -377 -524 -377q-184 0 -297 109zM362 104q66 -71 166 -71q146 0 303 153q195 201 279 568q-46 131 -139 200q-98 68 -205 68t-213 -76q-103 -79 -180 -260q-76 -194 -76 -371q0 -138 65 -211z" />
    <glyph glyph-name="Delta" unicode="&#x2206;" horiz-adv-x="1534" 
d="M49 0l750 1661l686 -1661h-1436zM199 98h1001l-475 1157z" />
    <glyph glyph-name="product" unicode="&#x220f;" horiz-adv-x="2052" 
d="M70 -199h45q102 0 149 41q45 45 45 146v1597q0 96 -45 141q-45 46 -149 46h-45v43h1910v-43h-41q-104 0 -149 -46q-45 -38 -45 -141v-1597q0 -83 31 -127q19 -31 79 -49q31 -11 125 -11v-47h-714v47h41q102 0 149 41q45 45 45 146v1734h-952v-1734q0 -80 29 -127
q24 -30 84 -49q47 -11 124 -11v-47h-716v47z" />
    <glyph glyph-name="summation" unicode="&#x2211;" horiz-adv-x="1782" 
d="M68 -201l802 996l-802 979v43h1529l33 -404h-47q-20 168 -92 236q-73 71 -207 71h-885l672 -823l-754 -932h979q78 0 185 35q67 22 112 78q48 57 76 182l47 -8l-76 -498h-1572v45z" />
    <glyph glyph-name="minus" unicode="&#x2212;" horiz-adv-x="1032" 
d="M72 457v145h891v-145h-891z" />
    <glyph glyph-name="uni2215" unicode="&#x2215;" horiz-adv-x="940" 
d="M88 16l623 1000l143 -25l-627 -999z" />
    <glyph glyph-name="uni2219" unicode="&#x2219;" horiz-adv-x="467" 
d="M233 422q-48 0 -77 30t-29 76t29 77.5t77 31.5q49 0 78 -31t29 -78q0 -46 -29 -76t-78 -30z" />
    <glyph glyph-name="radical" unicode="&#x221a;" horiz-adv-x="1378" 
d="M987 -94l-594 1222l-235 -108l-41 76l360 182l486 -985l311 1945h88z" />
    <glyph glyph-name="infinity" unicode="&#x221e;" horiz-adv-x="1782" 
d="M201 313q-121 127 -121 320q0 195 110 319q113 123 259 123q101 0 180 -55q81 -51 170 -221q79 185 178 258q97 73 266 73q193 0 326 -139t133 -360q0 -216 -131 -361q-131 -143 -287 -143q-120 0 -221 88q-67 62 -182 256q-88 -158 -168 -213q-92 -68 -221 -68
q-172 0 -291 123zM913 557q93 -187 179 -252q91 -65 198 -65q144 0 244 106q98 106 98 285q0 175 -102 291q-108 116 -236 116q-81 0 -143 -43q-60 -42 -113 -135q-42 -85 -125 -303zM231 381q84 -96 193 -96q111 0 201 102q62 78 139 320q-58 132 -135 194q-76 64 -183 64
q-126 0 -215 -93q-86 -91 -86 -237q0 -155 86 -254z" />
    <glyph glyph-name="integral" unicode="&#x222b;" horiz-adv-x="705" 
d="M45 -33q33 33 80 33q45 0 82 -39q33 -37 59 -37q22 0 33 17q14 14 14 57q0 50 -12 141q-51 456 -45 996q4 203 10 371.5t11 245t8 99.5q28 221 96 301t156 80q61 0 104 -43q45 -39 45 -88q0 -55 -33 -88q-29 -35 -75 -35q-36 0 -93 43q-28 25 -47 25q-20 0 -35 -18
q-14 -16 -14 -58q0 -56 12 -174q45 -480 45 -799q0 -56 -20 -702q-12 -361 -109 -479q-59 -78 -159 -78q-64 0 -103 39t-39 106q0 49 29 84z" />
    <glyph glyph-name="approxequal" unicode="&#x2248;" horiz-adv-x="1378" 
d="M133 672h-55q24 196 117 289q90 96 211 96q54 0 147 -29q40 -12 250 -121q136 -76 231 -76q78 0 125 48q66 59 84 168h60q-27 -191 -119 -289q-92 -92 -221 -92q-67 0 -136 24q-66 22 -235 115q-149 90 -244 90q-80 0 -141 -55q-61 -62 -74 -168zM133 207h-55
q24 196 117 289q91 96 211 96q63 0 147 -31q60 -18 250 -119q152 -77 231 -77q76 0 125 49q66 64 84 170h60q-27 -191 -119 -289q-98 -96 -221 -96q-47 0 -136 26q-74 31 -235 115q-158 92 -244 92q-78 0 -141 -57q-58 -59 -74 -168z" />
    <glyph glyph-name="notequal" unicode="&#x2260;" horiz-adv-x="1378" 
d="M272 0l195 348h-406v113h469l191 334h-660v114h723l197 348h129l-192 -348h401v-114h-469l-184 -334h653v-113h-721l-197 -348h-129z" />
    <glyph glyph-name="lessequal" unicode="&#x2264;" horiz-adv-x="1378" 
d="M88 864v58l1206 602v-133l-1009 -498l1009 -500v-129zM88 0v115h1206v-115h-1206z" />
    <glyph glyph-name="greaterequal" unicode="&#x2265;" horiz-adv-x="1378" 
d="M88 264v133l1008 498l-1008 500v129l1206 -600v-58zM88 0v115h1206v-115h-1206z" />
    <glyph glyph-name="lozenge" unicode="&#x25ca;" horiz-adv-x="1245" 
d="M541 0l-467 848l467 854h133l500 -854l-500 -848h-133zM610 113l428 735l-428 739l-407 -739z" />
    <glyph glyph-name="uniF8FF" unicode="&#xf8ff;" horiz-adv-x="1235" 
d="M135 51q-6 27 -6 49q0 26 9.5 54t18 43.5t36.5 64.5q20 22 20 68q0 50 -34 189t-34 196q0 45 17 71l-23 5q0 20 22.5 48.5t22.5 55.5q0 51 -8.5 124.5t-19.5 117.5q-9 29 -31 65q-19 31 -19 70q0 59 66 141l29 41q28 -5 113 -22t145 -25t119 -8q127 0 227 45
q24 -8 46.5 -33t47.5 -25t51 15q25 -25 25 -72t12 -76t34 -57t32 -53q9 -26 16.5 -108.5t36.5 -123.5q-14 -33 -74 -88l-45 -41q-21 -18 -37 -39q42 -18 67.5 -49t33 -58.5t23.5 -52.5t42 -34q-9 -31 -23 -108t-33 -132t-56 -98q2 -11 16 -56t14 -77v-15q0 -2 -2 -16
q-207 -61 -440 -61q-252 0 -457 65zM432 246q9 4 21 4h20q43 0 87 -14q42 -13 89 -15q78 33 96 33q17 0 33 -12q6 12 16 23t25 23.5t23 20.5q14 46 14 92q0 38 -16 69t-40 63t-34 59q-40 6 -80 6q-33 0 -108.5 -8t-124.5 -8q2 -10 2 -23q0 -37 -26 -85.5t-26 -74.5
q0 -37 14 -76q15 -36 15 -77zM434 860q50 -16 109 -16q41 0 83.5 8t88.5 20.5t67 16.5q41 166 41 194q0 9 -7.5 15.5t-17 10.5t-17 14t-7.5 26q-87 35 -190 35q-50 0 -75 -1q-77 -3 -106 -5q-22 -66 -22 -123q0 -71 53 -195z" />
    <glyph glyph-name="uni00A0" horiz-adv-x="578" 
 />
    <glyph glyph-name="space.em" horiz-adv-x="2081" 
 />
    <glyph glyph-name="space.thin" horiz-adv-x="545" 
 />
    <glyph glyph-name="space.en" horiz-adv-x="1057" 
 />
    <glyph glyph-name="CR" horiz-adv-x="33" 
 />
    <glyph glyph-name="commaaccent" horiz-adv-x="401" 
d="M174 -217q15 41 23 78q-38 4 -64 30q-29 32 -29 76q0 46 30.5 76.5t82.5 30.5t81.5 -34t29.5 -89q0 -112 -49 -206t-138 -161l-55 58q60 66 88 141z" />
    <glyph glyph-name="fi" horiz-adv-x="1038" 
d="M762 0v1026h160v-1026h-160zM842 1219q-47 0 -73.5 29t-26.5 73t26.5 73t73.5 29q49 0 75.5 -28.5t26.5 -73.5t-26.5 -73.5t-75.5 -28.5zM188 0v805h-117v137h117v96q0 213 60 312q61 100 214 100q92 0 177 -49l-56 -121q-42 25 -92 25q-85 0 -117 -65q-30 -64 -30 -200
v-98h223v-137h-223v-805h-156z" />
    <glyph glyph-name="fl" horiz-adv-x="997" 
d="M744 0v1434h157v-1434h-157zM188 0v805h-117v137h117v96q0 213 60 312q61 100 214 100q92 0 177 -49l-56 -121q-42 25 -92 25q-85 0 -117 -65q-30 -64 -30 -200v-98h223v-137h-223v-805h-156z" />
    <glyph glyph-name="grave.cap" horiz-adv-x="584" 
d="M430 1569l-344 209l86 131l326 -242z" />
    <glyph glyph-name="acute.cap" horiz-adv-x="584" 
d="M154 1569l-68 98l324 242l86 -131z" />
    <glyph glyph-name="circumflex.cap" horiz-adv-x="715" 
d="M127 1595l-82 84l313 271l310 -269l-80 -86l-230 187z" />
    <glyph glyph-name="caron.cap" horiz-adv-x="715" 
d="M358 1595l-313 271l82 84l231 -187l230 187l80 -86z" />
    <glyph glyph-name="caron.alt" horiz-adv-x="559" 
d="M256 1155q15 41 23 78q-39 4 -64 31q-29 31 -29 75q0 46 30.5 76.5t82.5 30.5t81.5 -34t29.5 -89q0 -112 -49 -206t-138 -161l-55 58q60 66 88 141z" />
    <glyph glyph-name="tilde.cap" horiz-adv-x="684" 
d="M471 1610q-41 0 -77.5 17.5t-58 38.5t-50.5 38.5t-58 17.5q-33 0 -55 -23.5t-27 -60.5h-118q0 24 10 54.5t30.5 63.5t60.5 55t93 22q45 0 85 -17t63.5 -37.5t50.5 -37.5t49 -17q33 0 47.5 21.5t22.5 66.5h120q-8 -105 -62.5 -153.5t-125.5 -48.5z" />
    <glyph glyph-name="dieresis.cap" horiz-adv-x="657" 
d="M195 1632q-41 0 -66 26t-25 64q0 40 24.5 66.5t66.5 26.5q40 0 65 -26.5t25 -66.5q0 -37 -25 -63.5t-65 -26.5zM463 1632q-40 0 -65 26.5t-25 63.5q0 40 25 66.5t65 26.5q42 0 66 -26.5t24 -66.5q0 -38 -24.5 -64t-65.5 -26z" />
    <glyph glyph-name="macron.cap" horiz-adv-x="588" 
d="M51 1657v133h486v-133h-486z" />
    <glyph glyph-name="breve.cap" horiz-adv-x="633" 
d="M317 1618q-66 0 -125 22t-103 74.5t-46 126.5h119q2 -39 28.5 -64t58.5 -33.5t68 -8.5q60 0 106.5 25t49.5 81h119q-2 -56 -27.5 -100.5t-66 -70t-87 -39t-94.5 -13.5z" />
    <glyph glyph-name="ring.cap" horiz-adv-x="641" 
d="M319 1585q-75 0 -118 45t-43 115q0 71 42.5 115.5t118.5 44.5q78 0 120 -44t42 -116q0 -71 -42 -115.5t-120 -44.5zM319 1675q34 0 52 19.5t18 50.5q0 32 -18 51t-52 19q-32 0 -50.5 -19.5t-18.5 -50.5q0 -30 19 -50t50 -20z" />
    <glyph glyph-name="hungarumlaut.cap" horiz-adv-x="905" 
d="M180 1569l-74 84l302 264l98 -113zM512 1569l-74 84l303 264l97 -113z" />
    <glyph glyph-name="dotaccent.cap" horiz-adv-x="573" 
d="M287 1673q-40 0 -60 22.5t-20 59.5t20 59.5t60 22.5t61 -22.5t21 -59.5t-21 -59.5t-61 -22.5z" />
    <glyph glyph-name="commaaccent.alt" horiz-adv-x="401" 
d="M174 -350q15 41 23 78q-38 4 -64 30q-29 32 -29 76q0 46 30.5 76.5t82.5 30.5t81.5 -34t29.5 -89q0 -112 -49 -206t-138 -161l-55 57q61 68 88 142z" />
    <glyph glyph-name="t_t" horiz-adv-x="1327" 
d="M176 305v625h-115v127h115v254h156v-254h483v254h156v-254h221v-127h-221v-623q0 -79 37 -126.5t102 -47.5q40 0 66.5 7t64.5 30l57 -121q-75 -61 -221 -61q-262 0 -262 317v625h-483v-623q0 -79 37.5 -126.5t103.5 -47.5q38 0 64.5 7.5t64.5 29.5l57 -121
q-75 -61 -221 -61q-262 0 -262 317z" />
    <glyph glyph-name="r_t" horiz-adv-x="1270" 
d="M135 0v1057h154v-180q46 97 126.5 138.5t205.5 41.5h145v254h156v-254h233v-127h-233v-623q0 -80 37 -127t104 -47q38 0 64.5 7.5t64.5 29.5l57 -121q-77 -61 -221 -61q-262 0 -262 317v619h-148q-161 0 -245 -102q-84 -100 -84 -263v-559h-154z" />
    <glyph glyph-name="Q.alt" horiz-adv-x="1606" 
d="M1526 -258l-946 270q-232 67 -373 257t-141 448q0 155 55.5 291t152.5 233t233.5 153t293.5 56q207 0 375 -94.5t263 -261.5t95 -375q0 -254 -142.5 -436t-375.5 -242l551 -150zM227 717q0 -257 160.5 -423.5t413.5 -166.5q165 0 296 76t204 210.5t73 303.5t-73 303.5
t-204 210.5t-296 76q-253 0 -413.5 -166.5t-160.5 -423.5z" />
    <glyph glyph-name="r_f" 
d="M109 0v1057h155v-193q86 180 303 180h146q0 76 7 134.5t25.5 111.5t49 87.5t79.5 54.5t115 20q91 0 174 -51l-53 -119q-43 25 -92 25q-85 0 -118.5 -64t-31.5 -209h224v-127h-224v-907h-155v907h-150q-146 0 -222 -91q-77 -92 -77 -247v-569h-155z" />
    <glyph glyph-name="T_Y" horiz-adv-x="2091" 
d="M440 0v1288h-417v146h1048l408 -738l415 744l166 -23l-504 -885v-532h-155v535l-426 753h-379v-1288h-156z" />
    <glyph glyph-name="apple" horiz-adv-x="1235" 
d="M135 51q-6 27 -6 49q0 26 9.5 54t18 43.5t36.5 64.5q20 22 20 68q0 50 -34 189t-34 196q0 45 17 71l-23 5q0 20 22.5 48.5t22.5 55.5q0 51 -8.5 124.5t-19.5 117.5q-9 29 -31 65q-19 31 -19 70q0 59 66 141l29 41q28 -5 113 -22t145 -25t119 -8q127 0 227 45
q24 -8 46.5 -33t47.5 -25t51 15q25 -25 25 -72t12 -76t34 -57t32 -53q9 -26 16.5 -108.5t36.5 -123.5q-14 -33 -74 -88l-45 -41q-21 -18 -37 -39q42 -18 67.5 -49t33 -58.5t23.5 -52.5t42 -34q-9 -31 -23 -108t-33 -132t-56 -98q2 -11 16 -56t14 -77v-15q0 -2 -2 -16
q-207 -61 -440 -61q-252 0 -457 65zM432 246q9 4 21 4h20q43 0 87 -14q42 -13 89 -15q78 33 96 33q17 0 33 -12q6 12 16 23t25 23.5t23 20.5q14 46 14 92q0 38 -16 69t-40 63t-34 59q-40 6 -80 6q-33 0 -108.5 -8t-124.5 -8q2 -10 2 -23q0 -37 -26 -85.5t-26 -74.5
q0 -37 14 -76q15 -36 15 -77zM434 860q50 -16 109 -16q41 0 83.5 8t88.5 20.5t67 16.5q41 166 41 194q0 9 -7.5 15.5t-17 10.5t-17 14t-7.5 26q-87 35 -190 35q-50 0 -75 -1q-77 -3 -106 -5q-22 -66 -22 -123q0 -71 53 -195z" />
    <glyph glyph-name="i.trk" horiz-adv-x="428" 
d="M133 0v1026h160v-1026h-160zM213 1219q-47 0 -73.5 29t-26.5 73t26.5 73t73.5 29q49 0 75.5 -28.5t26.5 -73.5t-26.5 -73.5t-75.5 -28.5z" />
    <glyph glyph-name="space.thin_fra" horiz-adv-x="545" 
 />
    </font>
</defs>
</svg>
